<?xml version="1.0" encoding="UTF-8" standalone="no"?>
<!-- Created with Inkscape (http://www.inkscape.org/) -->

<svg
   xmlns:dc="http://purl.org/dc/elements/1.1/"
   xmlns:cc="http://creativecommons.org/ns#"
   xmlns:rdf="http://www.w3.org/1999/02/22-rdf-syntax-ns#"
   xmlns:svg="http://www.w3.org/2000/svg"
   xmlns="http://www.w3.org/2000/svg"
   xmlns:sodipodi="http://sodipodi.sourceforge.net/DTD/sodipodi-0.dtd"
   xmlns:inkscape="http://www.inkscape.org/namespaces/inkscape"
   width="64"
   height="320"
   id="svg2"
   version="1.1"
   inkscape:version="0.48.4 r9939"
   sodipodi:docname="fruits.svg"
   inkscape:export-filename="/home/cesar/Projects/muserver/portal/assets/high/fruits.png"
   inkscape:export-xdpi="90"
   inkscape:export-ydpi="90">
  <defs
     id="defs4" />
  <sodipodi:namedview
     id="base"
     pagecolor="#ffffff"
     bordercolor="#666666"
     borderopacity="1.0"
     inkscape:pageopacity="0.0"
     inkscape:pageshadow="2"
     inkscape:zoom="1.4"
     inkscape:cx="262.41802"
     inkscape:cy="85.930031"
     inkscape:document-units="px"
     inkscape:current-layer="g3702"
     showgrid="false"
     inkscape:window-width="1545"
     inkscape:window-height="876"
     inkscape:window-x="55"
     inkscape:window-y="24"
     inkscape:window-maximized="1"
     showguides="true"
     inkscape:guide-bbox="true"
     inkscape:snap-global="false"
     borderlayer="true">
    <sodipodi:guide
       orientation="1,0"
       position="0.015783634,131.65918"
       id="guide3238" />
    <sodipodi:guide
       orientation="0,1"
       position="-19.192898,64.649763"
       id="guide3244" />
    <sodipodi:guide
       orientation="0,1"
       position="-45.961941,128.79445"
       id="guide3262" />
    <sodipodi:guide
       orientation="0,1"
       position="-54.548237,192.43406"
       id="guide3264" />
    <sodipodi:guide
       orientation="0,1"
       position="-26.769042,256.57875"
       id="guide3266" />
    <sodipodi:guide
       orientation="0,1"
       position="-24.243661,321.73359"
       id="guide3268" />
  </sodipodi:namedview>
  <metadata
     id="metadata7">
    <rdf:RDF>
      <cc:Work
         rdf:about="">
        <dc:format>image/svg+xml</dc:format>
        <dc:type
           rdf:resource="http://purl.org/dc/dcmitype/StillImage" />
        <dc:title></dc:title>
      </cc:Work>
    </rdf:RDF>
  </metadata>
  <g
     inkscape:label="high"
     inkscape:groupmode="layer"
     id="layer1"
     transform="translate(0,-732.36218)"
     sodipodi:insensitive="true"
     style="display:inline">
    <g
       inkscape:label="Layer 1"
       id="layer1-0"
       transform="matrix(0.46134315,0,0,0.46134315,2.2077799,731.86726)">
      <g
         transform="translate(466,7)"
         id="g4785">
        <path
           d="m -403.94,6.1085 c -0.11,0.6438 -0.11,5.5325 -0.03,10.272 -16.88,0.422 -33.59,7.612 -41.12,24.15 -4.14,9.216 -5.13,19.549 -4.6,29.638 2.39,11.003 5.31,22.594 10.9,32.302 8.2,12.12 22.48,14.26 35.96,14.87 11.64,-0.41 23.23,-3.37 33.68,-8.81 8.23,-4.12 12.94,-11.714 16.01,-20.549 2.2,-11.553 2.84,-24.341 0,-35.876 -4.73,-7.1 -6.93,-16.813 -12.61,-23.12 -9.05,-7.288 -20.89,-13.778 -32.53,-10.245 l 0.29,-4.097 4.54,-15.797 c -5.07,0.74071 -6.69,-4.4028 -10.49,7.2625 z"
           style="fill:#000000;fill-rule:evenodd"
           sodipodi:nodetypes="cccccccccccccc"
           id="path4637"
           inkscape:connector-curvature="0" />
        <path
           d="m -425.12,27.367 c -8.54,5.544 -20.03,20.633 -20.24,30.943 -0.33,16.837 4.36,39.052 19.13,47.94 13.05,5.92 21.86,7.01 35.67,4.58 13.6,-0.78 22.15,-7.9 27.52,-14.702 5.37,-6.801 7.17,-28.681 7.18,-31.188 0.1,-14.002 -8.24,-28.501 -18.89,-33.955 -6.78,-3.467 -15.97,-7.448 -23.7,-7.563 -1.87,0.567 -0.3,13.374 -1.41,13.17 -1.12,-0.205 -5.56,3.294 -6.21,0.217 -0.65,-3.076 3.2,-12.893 1.08,-12.396 -8.5,1.283 -12,0.118 -20.13,2.954 z"
           style="fill:#ff9000;fill-rule:evenodd"
           sodipodi:nodetypes="csccssscsscc"
           id="path4639"
           inkscape:connector-curvature="0" />
        <path
           d="m -371.53,37.84 c 1.59,1.38 4.03,2.939 5.2,4.735 1.37,2.107 1.92,5.611 2.72,8.024 0.43,1.296 1.98,3.097 1.4,4.327 -0.8,1.729 -3.95,1.805 -5.76,2.029 -1.46,0.181 -3.48,-0.003 -4.88,-0.458 -1.65,-0.533 -3.83,-1.63 -5.03,-2.94 -1.54,-1.684 -2.72,-4.716 -3.37,-6.957 -0.37,-1.253 -0.54,-3.027 -0.52,-4.339 0.03,-1.515 0.08,-3.667 0.8,-4.979 0.4,-0.736 1.36,-1.392 2.06,-1.806 0.87,-0.514 2.16,-1.303 3.14,-1.128 1.59,0.285 2.99,2.412 4.24,3.492 z"
           style="fill:#ffffff;fill-opacity:0.34311003;fill-rule:evenodd"
           sodipodi:nodetypes="cssssssssssss"
           id="path4641"
           inkscape:connector-curvature="0" />
        <path
           d="m -369.73,41.782 c 0.77,1.115 2.04,2.481 2.51,3.773 0.52,1.431 0.42,3.551 0.58,5.075 0.09,0.816 0.81,2.119 0.28,2.723 -0.76,0.872 -2.64,0.144 -3.74,-0.112 -0.92,-0.215 -2.1,-0.759 -2.88,-1.314 -0.92,-0.652 -2.09,-1.715 -2.65,-2.731 -0.67,-1.238 -1.01,-3.192 -1.11,-4.618 -0.05,-0.764 0.07,-1.799 0.26,-2.538 0.22,-0.831 0.54,-2.028 1.14,-2.611 0.34,-0.338 1.01,-0.484 1.47,-0.565 0.61,-0.104 1.5,-0.243 2.05,0.05 0.91,0.491 1.48,1.994 2.09,2.868 z"
           style="fill:#ffffff;fill-rule:evenodd"
           sodipodi:nodetypes="cssssssssssss"
           id="path4643"
           inkscape:connector-curvature="0" />
        <path
           d="m -431.65,89.455 -16.31,-17.271 1.05,8.754 1.8,10.088 6.71,9.434 10.9,9.66 14.46,2.71 25.48,-0.55 23.32,-6.58 c 0,0 7.62,-17.267 7.18,-18.757 -12.04,11.186 -21.43,13.837 -28.76,11.125 l -11.65,-1.573 -19.28,-2.142 -14.9,-4.898 z"
           style="fill:#000000;fill-opacity:0.25516998;fill-rule:evenodd"
           sodipodi:nodetypes="cccccccccccccc"
           id="path4645"
           inkscape:connector-curvature="0" />
        <path
           d="m -410.33,39.579 c -2.31,-1.287 -4.03,-7.667 -6.31,-6.321 -0.91,0.541 0.48,2.532 0.72,3.609 0.28,1.245 0.49,2.98 1.04,4.124 0.58,1.225 1.76,2.611 2.68,3.577 1.12,1.177 2.66,2.844 4.14,3.436 1.42,0.572 3.55,0.417 5.07,0.322 2.65,-0.166 6.19,-0.776 8.71,-1.66 2.46,-0.86 6.14,-1.901 7.73,-4.062 1.47,-2.001 2.04,-8.68 1.7,-8.26 -3.55,4.342 -6.7,6.276 -9.41,6.273 0,0 -2.84,-0.022 -4.06,-0.006 -2.01,0.026 -4.7,0.383 -6.7,0.184 -1.62,-0.161 -3.87,-0.41 -5.31,-1.216 z"
           style="fill:#000000;fill-opacity:0.25516998;fill-rule:evenodd"
           sodipodi:nodetypes="csssssssssssss"
           id="path4647"
           inkscape:connector-curvature="0" />
        <path
           d="m -410.56,37.465 c -2.3,-0.725 -4.03,-4.315 -6.3,-3.558 -0.91,0.304 0.48,1.425 0.72,2.031 0.28,0.701 0.49,1.678 1.03,2.322 0.58,0.689 1.77,1.469 2.69,2.013 1.11,0.662 2.66,1.6 4.13,1.933 1.43,0.322 3.55,0.235 5.07,0.182 2.65,-0.094 6.19,-0.437 8.72,-0.934 2.45,-0.485 6.13,-1.07 7.72,-2.287 1.48,-1.126 2.04,-4.885 1.7,-4.649 -3.54,2.444 -6.69,3.533 -9.41,3.531 0,0 -2.84,-0.012 -4.06,-0.003 -2.01,0.014 -4.7,0.215 -6.7,0.103 -1.62,-0.091 -3.87,-0.231 -5.31,-0.684 z"
           style="fill:#ffffff;fill-opacity:0.25516998;fill-rule:evenodd"
           sodipodi:nodetypes="csssssssssssss"
           id="path4649"
           inkscape:connector-curvature="0" />
        <g
           transform="matrix(1,0,0,1.0588,0,0.6282)"
           style="fill:#ffffff;fill-opacity:0.24483002"
           id="g4742">
          <path
             d="m -430.24,55.667 c 0.64,1.9 -0.38,2.497 -3.21,1.668 -1.49,-0.649 -1.01,-1.484 -0.9,-2.678 0.29,-0.871 0.97,-0.907 2.07,-0.898 0.77,0.559 1.42,1.249 2.04,1.908 z"
             style="fill:#ffffff;fill-opacity:0.24483002;fill-rule:evenodd"
             sodipodi:nodetypes="ccccc"
             id="path4660"
             inkscape:connector-curvature="0" />
          <path
             d="m -424.97,63.991 c 0.64,1.899 -0.38,2.497 -3.21,1.668 -1.49,-0.649 -1.01,-1.485 -0.91,-2.678 0.3,-0.872 0.98,-0.908 2.07,-0.899 0.78,0.559 1.43,1.249 2.05,1.909 z"
             style="fill:#ffffff;fill-opacity:0.24483002;fill-rule:evenodd"
             sodipodi:nodetypes="ccccc"
             id="path4662"
             inkscape:connector-curvature="0" />
          <path
             d="m -418.4,57.118 c 0.64,1.899 -0.38,2.497 -3.21,1.668 -1.49,-0.649 -1.01,-1.485 -0.9,-2.678 0.29,-0.871 0.97,-0.908 2.07,-0.899 0.77,0.559 1.42,1.249 2.04,1.909 z"
             style="fill:#ffffff;fill-opacity:0.24483002;fill-rule:evenodd"
             sodipodi:nodetypes="ccccc"
             id="path4664"
             inkscape:connector-curvature="0" />
          <path
             d="m -412.42,73.254 c 0.64,1.9 -0.38,2.497 -3.21,1.668 -1.49,-0.649 -1.01,-1.484 -0.91,-2.678 0.3,-0.871 0.98,-0.908 2.07,-0.898 0.78,0.558 1.43,1.249 2.05,1.908 z"
             style="fill:#ffffff;fill-opacity:0.24483002;fill-rule:evenodd"
             sodipodi:nodetypes="ccccc"
             id="path4666"
             inkscape:connector-curvature="0" />
          <path
             d="m -410.33,63.393 c 0.64,1.9 -0.38,2.497 -3.21,1.668 -1.49,-0.649 -1.01,-1.485 -0.9,-2.678 0.29,-0.871 0.97,-0.908 2.07,-0.898 0.77,0.558 1.42,1.248 2.04,1.908 z"
             style="fill:#ffffff;fill-opacity:0.24483002;fill-rule:evenodd"
             sodipodi:nodetypes="ccccc"
             id="path4668"
             inkscape:connector-curvature="0" />
          <path
             d="m -421.98,72.656 c 0.64,1.9 -0.39,2.497 -3.22,1.668 -1.48,-0.649 -1.01,-1.484 -0.9,-2.677 0.3,-0.872 0.98,-0.908 2.07,-0.899 0.78,0.559 1.42,1.249 2.05,1.908 z"
             style="fill:#ffffff;fill-opacity:0.24483002;fill-rule:evenodd"
             sodipodi:nodetypes="ccccc"
             id="path4670"
             inkscape:connector-curvature="0" />
          <path
             d="m -404.65,54.13 c 0.64,1.899 -0.38,2.496 -3.21,1.668 -1.49,-0.65 -1.02,-1.485 -0.91,-2.678 0.3,-0.872 0.98,-0.908 2.07,-0.899 0.78,0.559 1.43,1.249 2.05,1.909 z"
             style="fill:#ffffff;fill-opacity:0.24483002;fill-rule:evenodd"
             sodipodi:nodetypes="ccccc"
             id="path4672"
             inkscape:connector-curvature="0" />
          <path
             d="m -417.5,83.414 c 0.64,1.9 -0.38,2.497 -3.21,1.668 -1.49,-0.649 -1.01,-1.485 -0.91,-2.678 0.3,-0.871 0.98,-0.908 2.07,-0.898 0.78,0.558 1.43,1.249 2.05,1.908 z"
             style="fill:#ffffff;fill-opacity:0.24483002;fill-rule:evenodd"
             sodipodi:nodetypes="ccccc"
             id="path4674"
             inkscape:connector-curvature="0" />
          <path
             d="m -401.06,71.76 c 0.63,1.9 -0.39,2.497 -3.22,1.668 -1.48,-0.649 -1.01,-1.485 -0.9,-2.678 0.29,-0.871 0.98,-0.908 2.07,-0.898 0.77,0.558 1.42,1.248 2.05,1.908 z"
             style="fill:#ffffff;fill-opacity:0.24483002;fill-rule:evenodd"
             sodipodi:nodetypes="ccccc"
             id="path4676"
             inkscape:connector-curvature="0" />
          <path
             d="m -404.05,81.621 c 0.63,1.9 -0.39,2.497 -3.22,1.668 -1.48,-0.649 -1.01,-1.484 -0.9,-2.678 0.29,-0.871 0.98,-0.908 2.07,-0.898 0.77,0.558 1.42,1.249 2.05,1.908 z"
             style="fill:#ffffff;fill-opacity:0.24483002;fill-rule:evenodd"
             sodipodi:nodetypes="ccccc"
             id="path4678"
             inkscape:connector-curvature="0" />
          <path
             d="m -399.57,95.367 c 0.64,1.9 -0.38,2.497 -3.21,1.668 -1.49,-0.649 -1.02,-1.485 -0.91,-2.678 0.3,-0.871 0.98,-0.908 2.07,-0.898 0.78,0.558 1.43,1.248 2.05,1.908 z"
             style="fill:#ffffff;fill-opacity:0.24483002;fill-rule:evenodd"
             sodipodi:nodetypes="ccccc"
             id="path4680"
             inkscape:connector-curvature="0" />
          <path
             d="m -389.41,95.068 c 0.64,1.9 -0.38,2.497 -3.21,1.668 -1.49,-0.649 -1.02,-1.485 -0.91,-2.678 0.3,-0.871 0.98,-0.908 2.07,-0.898 0.78,0.558 1.43,1.249 2.05,1.908 z"
             style="fill:#ffffff;fill-opacity:0.24483002;fill-rule:evenodd"
             sodipodi:nodetypes="ccccc"
             id="path4682"
             inkscape:connector-curvature="0" />
          <path
             d="m -377.46,91.781 c 0.64,1.9 -0.38,2.497 -3.21,1.668 -1.49,-0.649 -1.01,-1.485 -0.9,-2.678 0.29,-0.871 0.97,-0.908 2.07,-0.898 0.77,0.558 1.42,1.249 2.04,1.908 z"
             style="fill:#ffffff;fill-opacity:0.24483002;fill-rule:evenodd"
             sodipodi:nodetypes="ccccc"
             id="path4684"
             inkscape:connector-curvature="0" />
          <path
             d="m -367.89,87 c 0.63,1.9 -0.39,2.497 -3.22,1.668 -1.49,-0.649 -1.01,-1.485 -0.9,-2.678 0.29,-0.871 0.98,-0.908 2.07,-0.898 0.77,0.558 1.42,1.248 2.05,1.908 z"
             style="fill:#ffffff;fill-opacity:0.24483002;fill-rule:evenodd"
             sodipodi:nodetypes="ccccc"
             id="path4686"
             inkscape:connector-curvature="0" />
          <path
             d="m -362.81,77.736 c 0.63,1.9 -0.39,2.497 -3.22,1.668 -1.49,-0.649 -1.01,-1.484 -0.9,-2.678 0.29,-0.871 0.98,-0.907 2.07,-0.898 0.77,0.559 1.42,1.249 2.05,1.908 z"
             style="fill:#ffffff;fill-opacity:0.24483002;fill-rule:evenodd"
             sodipodi:nodetypes="ccccc"
             id="path4688"
             inkscape:connector-curvature="0" />
          <path
             d="m -373.27,79.529 c 0.63,1.9 -0.39,2.497 -3.22,1.668 -1.48,-0.649 -1.01,-1.484 -0.9,-2.678 0.29,-0.871 0.98,-0.907 2.07,-0.898 0.77,0.559 1.42,1.249 2.05,1.908 z"
             style="fill:#ffffff;fill-opacity:0.24483002;fill-rule:evenodd"
             sodipodi:nodetypes="ccccc"
             id="path4690"
             inkscape:connector-curvature="0" />
          <path
             d="m -385.82,85.207 c 0.63,1.9 -0.39,2.497 -3.22,1.668 -1.48,-0.649 -1.01,-1.485 -0.9,-2.678 0.29,-0.871 0.98,-0.908 2.07,-0.898 0.77,0.558 1.42,1.248 2.05,1.908 z"
             style="fill:#ffffff;fill-opacity:0.24483002;fill-rule:evenodd"
             sodipodi:nodetypes="ccccc"
             id="path4692"
             inkscape:connector-curvature="0" />
          <path
             d="m -397.78,87.598 c 0.64,1.899 -0.38,2.496 -3.21,1.668 -1.49,-0.65 -1.01,-1.485 -0.9,-2.678 0.29,-0.872 0.97,-0.908 2.07,-0.899 0.77,0.559 1.42,1.249 2.04,1.909 z"
             style="fill:#ffffff;fill-opacity:0.24483002;fill-rule:evenodd"
             sodipodi:nodetypes="ccccc"
             id="path4694"
             inkscape:connector-curvature="0" />
          <path
             d="m -410.63,89.689 c 0.64,1.9 -0.38,2.497 -3.21,1.668 -1.49,-0.649 -1.01,-1.484 -0.9,-2.678 0.29,-0.871 0.97,-0.907 2.07,-0.898 0.77,0.559 1.42,1.249 2.04,1.908 z"
             style="fill:#ffffff;fill-opacity:0.24483002;fill-rule:evenodd"
             sodipodi:nodetypes="ccccc"
             id="path4696"
             inkscape:connector-curvature="0" />
          <path
             d="m -429.75,84.012 c 0.64,1.899 -0.39,2.497 -3.21,1.668 -1.49,-0.649 -1.02,-1.485 -0.91,-2.678 0.3,-0.872 0.98,-0.908 2.07,-0.899 0.78,0.559 1.43,1.249 2.05,1.909 z"
             style="fill:#ffffff;fill-opacity:0.24483002;fill-rule:evenodd"
             sodipodi:nodetypes="ccccc"
             id="path4698"
             inkscape:connector-curvature="0" />
          <path
             d="m -436.32,72.358 c 0.63,1.899 -0.39,2.497 -3.22,1.668 -1.49,-0.649 -1.01,-1.485 -0.9,-2.678 0.29,-0.872 0.98,-0.908 2.07,-0.899 0.77,0.559 1.42,1.249 2.05,1.909 z"
             style="fill:#ffffff;fill-opacity:0.24483002;fill-rule:evenodd"
             sodipodi:nodetypes="ccccc"
             id="path4700"
             inkscape:connector-curvature="0" />
          <path
             d="m -439.01,60.704 c 0.63,1.899 -0.39,2.496 -3.22,1.668 -1.49,-0.649 -1.01,-1.485 -0.9,-2.678 0.29,-0.872 0.98,-0.908 2.07,-0.899 0.77,0.559 1.42,1.249 2.05,1.909 z"
             style="fill:#ffffff;fill-opacity:0.24483002;fill-rule:evenodd"
             sodipodi:nodetypes="ccccc"
             id="path4702"
             inkscape:connector-curvature="0" />
          <path
             d="m -435.73,48.452 c 0.64,1.9 -0.38,2.497 -3.21,1.668 -1.49,-0.649 -1.01,-1.485 -0.9,-2.678 0.29,-0.871 0.97,-0.908 2.07,-0.898 0.77,0.558 1.42,1.248 2.04,1.908 z"
             style="fill:#ffffff;fill-opacity:0.24483002;fill-rule:evenodd"
             sodipodi:nodetypes="ccccc"
             id="path4704"
             inkscape:connector-curvature="0" />
          <path
             d="m -429.15,34.706 c 0.63,1.9 -0.39,2.497 -3.22,1.668 -1.48,-0.649 -1.01,-1.484 -0.9,-2.678 0.29,-0.871 0.98,-0.908 2.07,-0.898 0.77,0.558 1.42,1.249 2.05,1.908 z"
             style="fill:#ffffff;fill-opacity:0.24483002;fill-rule:evenodd"
             sodipodi:nodetypes="ccccc"
             id="path4706"
             inkscape:connector-curvature="0" />
          <path
             d="m -419.89,33.511 c 0.64,1.9 -0.38,2.497 -3.21,1.668 -1.49,-0.649 -1.01,-1.485 -0.91,-2.678 0.3,-0.871 0.98,-0.908 2.07,-0.898 0.78,0.558 1.43,1.248 2.05,1.908 z"
             style="fill:#ffffff;fill-opacity:0.24483002;fill-rule:evenodd"
             sodipodi:nodetypes="ccccc"
             id="path4708"
             inkscape:connector-curvature="0" />
          <path
             d="m -425.27,46.958 c 0.64,1.9 -0.38,2.497 -3.21,1.668 -1.49,-0.649 -1.01,-1.485 -0.91,-2.678 0.3,-0.871 0.98,-0.908 2.07,-0.898 0.78,0.558 1.43,1.248 2.05,1.908 z"
             style="fill:#ffffff;fill-opacity:0.24483002;fill-rule:evenodd"
             sodipodi:nodetypes="ccccc"
             id="path4710"
             inkscape:connector-curvature="0" />
          <path
             d="m -412.72,49.348 c 0.64,1.9 -0.38,2.497 -3.21,1.668 -1.49,-0.649 -1.01,-1.484 -0.91,-2.678 0.3,-0.871 0.98,-0.907 2.07,-0.898 0.78,0.559 1.43,1.249 2.05,1.908 z"
             style="fill:#ffffff;fill-opacity:0.24483002;fill-rule:evenodd"
             sodipodi:nodetypes="ccccc"
             id="path4712"
             inkscape:connector-curvature="0" />
          <path
             d="m -392.4,51.739 c 0.64,1.9 -0.38,2.497 -3.21,1.668 -1.49,-0.649 -1.01,-1.485 -0.91,-2.678 0.3,-0.871 0.98,-0.908 2.07,-0.898 0.78,0.558 1.43,1.248 2.05,1.908 z"
             style="fill:#ffffff;fill-opacity:0.24483002;fill-rule:evenodd"
             sodipodi:nodetypes="ccccc"
             id="path4714"
             inkscape:connector-curvature="0" />
          <path
             d="m -395.68,63.393 c 0.63,1.9 -0.39,2.497 -3.22,1.668 -1.49,-0.649 -1.01,-1.485 -0.9,-2.678 0.29,-0.871 0.98,-0.908 2.07,-0.898 0.77,0.558 1.42,1.248 2.05,1.908 z"
             style="fill:#ffffff;fill-opacity:0.24483002;fill-rule:evenodd"
             sodipodi:nodetypes="ccccc"
             id="path4716"
             inkscape:connector-curvature="0" />
          <path
             d="m -390.9,74.151 c 0.63,1.899 -0.39,2.496 -3.22,1.668 -1.48,-0.65 -1.01,-1.485 -0.9,-2.678 0.29,-0.872 0.98,-0.908 2.07,-0.899 0.77,0.559 1.42,1.249 2.05,1.909 z"
             style="fill:#ffffff;fill-opacity:0.24483002;fill-rule:evenodd"
             sodipodi:nodetypes="ccccc"
             id="path4718"
             inkscape:connector-curvature="0" />
          <path
             d="m -379.85,71.76 c 0.64,1.9 -0.38,2.497 -3.21,1.668 -1.49,-0.649 -1.01,-1.485 -0.91,-2.678 0.3,-0.871 0.98,-0.908 2.07,-0.898 0.78,0.558 1.43,1.248 2.05,1.908 z"
             style="fill:#ffffff;fill-opacity:0.24483002;fill-rule:evenodd"
             sodipodi:nodetypes="ccccc"
             id="path4720"
             inkscape:connector-curvature="0" />
          <path
             d="m -384.03,58.313 c 0.64,1.9 -0.39,2.497 -3.22,1.668 -1.48,-0.649 -1.01,-1.485 -0.9,-2.678 0.3,-0.871 0.98,-0.908 2.07,-0.898 0.78,0.558 1.43,1.249 2.05,1.908 z"
             style="fill:#ffffff;fill-opacity:0.24483002;fill-rule:evenodd"
             sodipodi:nodetypes="ccccc"
             id="path4722"
             inkscape:connector-curvature="0" />
          <path
             d="m -373.57,61.899 c 0.63,1.9 -0.39,2.497 -3.22,1.668 -1.48,-0.649 -1.01,-1.485 -0.9,-2.678 0.29,-0.871 0.98,-0.908 2.07,-0.898 0.77,0.558 1.42,1.248 2.05,1.908 z"
             style="fill:#ffffff;fill-opacity:0.24483002;fill-rule:evenodd"
             sodipodi:nodetypes="ccccc"
             id="path4724"
             inkscape:connector-curvature="0" />
          <path
             d="m -362.52,63.991 c 0.64,1.899 -0.38,2.497 -3.21,1.668 -1.49,-0.649 -1.01,-1.485 -0.9,-2.678 0.29,-0.872 0.97,-0.908 2.07,-0.899 0.77,0.559 1.42,1.249 2.04,1.909 z"
             style="fill:#ffffff;fill-opacity:0.24483002;fill-rule:evenodd"
             sodipodi:nodetypes="ccccc"
             id="path4726"
             inkscape:connector-curvature="0" />
          <path
             d="m -386.12,45.165 c 0.63,1.9 -0.39,2.497 -3.22,1.668 -1.48,-0.649 -1.01,-1.485 -0.9,-2.678 0.29,-0.871 0.98,-0.908 2.07,-0.898 0.77,0.558 1.42,1.248 2.05,1.908 z"
             style="fill:#ffffff;fill-opacity:0.24483002;fill-rule:evenodd"
             sodipodi:nodetypes="ccccc"
             id="path4728"
             inkscape:connector-curvature="0" />
          <path
             d="m -378.95,41.28 c 0.64,1.9 -0.39,2.497 -3.22,1.668 -1.48,-0.649 -1.01,-1.484 -0.9,-2.678 0.3,-0.871 0.98,-0.907 2.07,-0.898 0.78,0.558 1.43,1.249 2.05,1.908 z"
             style="fill:#ffffff;fill-opacity:0.24483002;fill-rule:evenodd"
             sodipodi:nodetypes="ccccc"
             id="path4730"
             inkscape:connector-curvature="0" />
          <path
             d="m -378.35,31.718 c 0.63,1.9 -0.39,2.497 -3.22,1.668 -1.48,-0.649 -1.01,-1.485 -0.9,-2.678 0.29,-0.871 0.98,-0.908 2.07,-0.898 0.77,0.558 1.42,1.248 2.05,1.908 z"
             style="fill:#ffffff;fill-opacity:0.24483002;fill-rule:evenodd"
             sodipodi:nodetypes="ccccc"
             id="path4732"
             inkscape:connector-curvature="0" />
          <path
             d="m -392.4,28.431 c 0.64,1.9 -0.38,2.497 -3.21,1.668 -1.49,-0.649 -1.01,-1.485 -0.91,-2.678 0.3,-0.871 0.98,-0.908 2.07,-0.898 0.78,0.558 1.43,1.248 2.05,1.908 z"
             style="fill:#ffffff;fill-opacity:0.24483002;fill-rule:evenodd"
             sodipodi:nodetypes="ccccc"
             id="path4734"
             inkscape:connector-curvature="0" />
          <path
             d="m -364.61,55.026 c 0.64,1.9 -0.38,2.497 -3.21,1.668 -1.49,-0.649 -1.01,-1.485 -0.91,-2.678 0.3,-0.871 0.98,-0.908 2.07,-0.898 0.78,0.558 1.43,1.248 2.05,1.908 z"
             style="fill:#ffffff;fill-opacity:0.24483002;fill-rule:evenodd"
             sodipodi:nodetypes="ccccc"
             id="path4736"
             inkscape:connector-curvature="0" />
          <path
             d="m -373.27,52.635 c 0.63,1.9 -0.39,2.497 -3.22,1.668 -1.48,-0.649 -1.01,-1.484 -0.9,-2.678 0.29,-0.871 0.98,-0.907 2.07,-0.898 0.77,0.559 1.42,1.249 2.05,1.908 z"
             style="fill:#ffffff;fill-opacity:0.24483002;fill-rule:evenodd"
             sodipodi:nodetypes="ccccc"
             id="path4738"
             inkscape:connector-curvature="0" />
          <path
             d="m -420.79,94.769 c 0.64,1.9 -0.38,2.497 -3.21,1.668 -1.49,-0.649 -1.01,-1.484 -0.9,-2.678 0.29,-0.871 0.97,-0.907 2.07,-0.898 0.77,0.558 1.42,1.249 2.04,1.908 z"
             style="fill:#ffffff;fill-opacity:0.24483002;fill-rule:evenodd"
             sodipodi:nodetypes="ccccc"
             id="path4740"
             inkscape:connector-curvature="0" />
        </g>
      </g>
    </g>
    <g
       inkscape:label="Layer 1"
       id="layer1-1"
       transform="matrix(0.46134315,0,0,0.46134315,2.5661903,796.32029)">
      <g
         transform="translate(5,-2)"
         id="g4523">
        <path
           d="m 61.945,6.3822 c -0.365,0.7862 -5.127,14.674 -5.54,15.857 -0.113,0.608 -0.115,5.225 -0.029,9.702 -4.156,-0.226 -9.634,1.376 -13.16,1.817 -6.118,0.766 -15.831,6.266 -20.782,9.94 -3.171,2.353 -5.462,7.496 -7.182,11.05 -1.413,2.922 -2.829,7.046 -3.458,10.23 -1.035,5.231 -1.682,12.457 -1.143,17.762 0.399,3.929 2.205,8.957 3.488,12.692 1.88,5.478 4,13.148 7.415,17.818 9.89,13.54 11.73,8.71 17.528,10.91 5.239,1.98 12.833,3.09 18.436,3.13 6.058,0.05 14.076,-1.52 19.932,-3.08 4.262,-1.12 9.859,-3.16 13.746,-5.24 2.747,-1.47 6.386,-3.69 8.471,-6.01 3.083,-3.43 6.173,-8.99 7.533,-13.396 1.74,-5.611 1.79,-13.617 1.7,-19.491 -0.07,-4.344 -0.33,-10.269 -1.7,-14.392 -1.19,-3.589 -4.41,-7.655 -6.3,-10.933 -1.889,-3.277 -3.306,-8.596 -6.304,-10.903 -5.223,-4.02 -13.577,-9.308 -20.135,-9.969 -3.631,-0.366 -8.95,-1.227 -12.399,0.293 l 0.294,-3.869 4.543,-14.919 -4.954,-8.9988 z"
           style="fill:#000000;fill-rule:evenodd"
           sodipodi:nodetypes="cccsssssssssssssssssscccc"
           id="path14534"
           inkscape:connector-curvature="0" />
        <path
           d="m 31.043,45.324 c -4,1.196 -7.561,7.579 -10.069,11.187 -2.508,3.608 -5.218,10.275 -5.638,14.805 -0.42,4.53 0.171,8.018 1.456,12.675 1.285,4.657 2.671,11.687 5.293,16.229 2.623,4.54 5.015,11.19 9.146,14.11 4.13,2.93 11.589,3.14 17.625,3.9 6.037,0.76 18.023,0.84 25.479,-0.87 7.456,-1.71 17.947,-3.9 23.319,-10.33 5.376,-6.42 7.616,-27.112 7.186,-29.453 C 104.4,75.237 97.555,62.182 96.558,60.082 95.561,57.982 89.589,46.825 85.938,45.508 82.286,44.192 71.986,40.545 69.093,40.484 66.2,40.423 64.601,39.951 62.24,38.366 c -1.305,2.638 -0.294,12.631 -1.41,12.438 -1.117,-0.193 -5.562,3.111 -6.211,0.205 -0.649,-2.905 3.208,-12.177 1.08,-11.708 -2.128,0.47 -8.114,1.855 -11.413,2.042 -3.3,0.187 -9.242,2.785 -13.243,3.981 z"
           style="fill:#71c837;fill-rule:evenodd"
           sodipodi:nodetypes="czzzzzzzzzzzzcsszzz"
           id="path14532"
           inkscape:connector-curvature="0" />
        <path
           d="m 87.962,52.58 c 1.594,1.304 4.039,2.776 5.206,4.472 1.369,1.99 1.916,5.3 2.717,7.579 0.429,1.223 1.979,2.925 1.404,4.087 -0.807,1.632 -3.95,1.704 -5.758,1.915 -1.462,0.171 -3.48,-0.002 -4.888,-0.432 -1.648,-0.504 -3.83,-1.54 -5.029,-2.777 -1.542,-1.59 -2.714,-4.454 -3.368,-6.57 -0.366,-1.184 -0.544,-2.859 -0.518,-4.098 0.031,-1.431 0.082,-3.464 0.797,-4.703 0.4,-0.695 1.358,-1.314 2.057,-1.705 0.87,-0.486 2.163,-1.231 3.145,-1.065 1.587,0.268 2.989,2.278 4.235,3.297 z"
           style="fill:#ffffff;fill-opacity:0.34311003;fill-rule:evenodd"
           sodipodi:nodetypes="cssssssssssss"
           id="path14542"
           inkscape:connector-curvature="0" />
        <path
           d="m 91.258,56.005 c 0.777,1.052 2.043,2.342 2.513,3.563 0.521,1.352 0.417,3.354 0.581,4.793 0.088,0.771 0.804,2.001 0.277,2.571 -0.761,0.824 -2.641,0.136 -3.736,-0.105 -0.92,-0.203 -2.102,-0.717 -2.884,-1.241 -0.921,-0.616 -2.089,-1.62 -2.643,-2.579 -0.676,-1.17 -1.018,-3.015 -1.114,-4.362 -0.051,-0.721 0.067,-1.699 0.259,-2.396 0.217,-0.786 0.535,-1.916 1.135,-2.467 0.347,-0.319 1.012,-0.457 1.477,-0.533 0.605,-0.099 1.496,-0.23 2.043,0.047 0.916,0.463 1.482,1.883 2.092,2.709 z"
           style="fill:#ffffff;fill-rule:evenodd"
           sodipodi:nodetypes="cssssssssssss"
           id="path14544"
           inkscape:connector-curvature="0" />
        <path
           d="m 30.806,97.71 -16.31,-16.312 1.051,8.269 1.808,9.527 6.702,8.916 10.905,9.12 14.457,2.55 25.479,-0.52 23.319,-6.21 c 0,0 7.623,-16.305 7.183,-17.713 C 93.357,105.9 83.972,108.4 76.644,105.84 L 64.991,104.36 45.712,102.34 30.806,97.71 z"
           style="fill:#000000;fill-opacity:0.25516998;fill-rule:evenodd"
           sodipodi:nodetypes="cccccccccccccc"
           id="path3702"
           inkscape:connector-curvature="0" />
        <path
           d="m 49.162,53.326 c -2.303,-1.215 -4.028,-7.241 -6.301,-5.969 -0.911,0.51 0.477,2.391 0.719,3.408 0.28,1.176 0.491,2.815 1.033,3.895 0.581,1.157 1.767,2.466 2.685,3.378 1.119,1.112 2.661,2.686 4.136,3.245 1.424,0.541 3.548,0.394 5.069,0.304 2.652,-0.156 6.194,-0.733 8.716,-1.567 2.458,-0.813 6.137,-1.795 7.728,-3.837 1.472,-1.889 2.038,-8.197 1.695,-7.801 -3.541,4.101 -6.694,5.928 -9.406,5.924 0,0 -2.843,-0.02 -4.061,-0.005 -2.01,0.025 -4.698,0.362 -6.7,0.174 -1.623,-0.152 -3.871,-0.388 -5.313,-1.149 z"
           style="fill:#000000;fill-opacity:0.25516998;fill-rule:evenodd"
           sodipodi:nodetypes="csssssssssssss"
           id="path4519"
           inkscape:connector-curvature="0" />
        <path
           d="m 50.132,50.433 c -2.303,-0.684 -4.029,-4.076 -6.301,-3.36 -0.912,0.287 0.477,1.346 0.719,1.918 0.279,0.662 0.49,1.584 1.033,2.193 0.581,0.651 1.766,1.387 2.685,1.901 1.118,0.626 2.661,1.511 4.135,1.826 1.425,0.304 3.549,0.222 5.069,0.171 2.653,-0.088 6.194,-0.412 8.716,-0.882 2.458,-0.457 6.137,-1.01 7.729,-2.159 1.472,-1.064 2.037,-4.614 1.695,-4.391 -3.542,2.308 -6.695,3.336 -9.407,3.334 0,0 -2.842,-0.011 -4.061,-0.003 -2.01,0.014 -4.698,0.204 -6.699,0.098 -1.624,-0.085 -3.871,-0.218 -5.313,-0.646 z"
           style="fill:#ffffff;fill-opacity:0.25516998;fill-rule:evenodd"
           sodipodi:nodetypes="csssssssssssss"
           id="path4521"
           inkscape:connector-curvature="0" />
      </g>
    </g>
    <g
       inkscape:label="Layer 1"
       id="layer1-6"
       transform="matrix(0.46134315,0,0,0.46134315,2.8201515,989.53772)">
      <g
         transform="translate(159,18)"
         id="g6452">
        <path
           d="m -123.12,41.576 -2.26,8.176 -8.97,21.358 -1.55,18.563 14.35,13.547 24.187,4.24 39.943,-12.738 c 0,0 -0.929,-26.109 -1.331,-28.095 C -59.154,64.64 -70.678,55.885 -71.593,54.103 -72.508,52.32 -76.107,29.826 -79.459,28.708 -82.81,27.59 -92.5,21.602 -92.5,21.602 l -14.88,3.478 -8.21,1.434 -7.53,15.062 z"
           style="fill:#aad400;fill-rule:evenodd"
           sodipodi:nodetypes="cccccccssscccc"
           id="path14546"
           inkscape:connector-curvature="0" />
        <path
           d="m -88.275,-14.525 c -3.733,0.154 -9.285,5.8289 -10.406,6.8435 -0.536,0.485 -4.789,12.443 -5.089,13.469 -0.25,0.8303 3.76,13.728 0.21,14.438 0,-0.001 -7.94,0.116 -10.46,2.092 -5.96,9.592 -9.69,20.468 -13.38,31.219 -6.16,6.518 -7.88,12.386 -8.59,21.094 -0.46,4.383 -2.6,10.55 -1,14.656 2.21,5.685 9.35,11.163 14.75,14.003 7.07,3.71 18.07,5.38 26.059,5.5 8.774,0.12 20.675,-1.86 28.781,-5.22 3.89,-1.61 9.012,-4.628 11.531,-8.002 2.132,-2.855 3.579,-7.72 3.719,-11.281 0.135,-3.433 -1.781,-7.819 -2.719,-11.125 -0.731,-2.578 -1.368,-6.203 -2.75,-8.5 -2.019,-3.357 -7.344,-5.869 -9.093,-9.375 -1.513,-3.031 -0.832,-7.895 -1.75,-11.156 -2.545,-11.054 -5.608,-21.603 -17.438,-24.563 -3.816,-0.807 -10.334,3.067 -13,0.219 -1.47,-1.572 0.166,-5.045 0.594,-7.156 0.794,-3.9167 1.707,-9.4983 4.156,-12.656 1.077,-1.3894 3.282,-2.5662 4.938,-3.1565 13.906,-0.4341 17.076,-5.3461 0.937,-11.344 z m -11.815,36.281 c 0.05,-0.049 0.174,-0.045 0.221,0 0.601,0.567 0.078,1.927 0.157,2.75 0.053,0.556 -0.173,1.479 0.25,1.844 3.125,2.693 10.17,-2.238 13.75,-0.188 3.836,2.198 7.606,6.946 9.231,11.058 2.3,5.819 1.791,15.226 4.875,20.671 1.023,1.805 1.506,4.756 2.987,6.209 5.568,3.616 8.56,8.35 9.629,14.43 0.647,2.934 0.854,7.236 -0.379,9.976 -2.404,5.343 -9.774,9.134 -15.307,11.06 -5.822,2.024 -15.873,3.574 -22.036,3.704 -6.258,0.13 -14.948,-2.02 -20.718,-4.452 -5.06,-2.136 -12.14,-6.43 -14.25,-11.5 0.56,-5.987 0.06,-13.225 1.91,-19.093 2.29,-3.291 4.11,-7.765 6.45,-11.036 1.54,-2.687 4.22,-11.269 5.03,-14.259 0.81,-2.992 1.12,-0.286 2.33,-3.143 1.61,-3.818 3.58,-9.558 7,-11.906 2.34,-1.611 7.56,0.653 9.341,-1.563 0.341,-0.424 -0.043,-1.27 -0.093,-1.812 -0.078,-0.829 -0.918,-2.123 -0.378,-2.75 z"
           style="fill:#000000;fill-rule:evenodd"
           sodipodi:nodetypes="cssscccsssssssssccssscccssssssccsssscccssssss"
           id="path14548"
           inkscape:connector-curvature="0" />
        <path
           d="m -82.157,30.884 2.108,3.622 3.019,5.411 1.529,5.083 -5.017,-3.797 -8.24,0.359 -5.59,-4.358 -0.159,-3.409 -2.64,-3.396 -5.193,-2.297 18.086,-0.55 2.097,3.332 z"
           style="fill:#ffffff;fill-opacity:0.34311003;fill-rule:evenodd"
           sodipodi:nodetypes="cccccccccccc"
           id="path14552"
           inkscape:connector-curvature="0" />
        <path
           d="m -85.009,27.038 2.316,3.298 1.633,2.91 -1.082,1.475 -3.062,0.418 -2.528,-0.358 -2.521,-1.176 -1.528,-2.418 -0.129,-1.441 0.575,-1.594 1.129,-0.503 1.432,-0.914 3.765,0.303 z"
           style="fill:#ffffff;fill-rule:evenodd"
           sodipodi:nodetypes="ccccccccccccc"
           id="path14554"
           inkscape:connector-curvature="0" />
        <path
           d="m -69.501,64.198 2.913,3.149 4.094,3.279 2.067,11.24 -4.211,-4.981 -9.924,1.625 -4.496,-2.45 -2.635,-5.542 -2.308,-1.988 -10.165,-6.475 13.621,0.545 8.946,-1.734 2.098,3.332 z"
           style="fill:#ffffff;fill-opacity:0.34311003;fill-rule:evenodd"
           sodipodi:nodetypes="ccccccccccccc"
           id="path14558"
           inkscape:connector-curvature="0" />
        <path
           d="m -71.418,63.924 3.728,2.553 1.749,2.197 -2.799,2.283 -2.86,0.382 -2.363,-0.327 -2.356,-1.076 -1.427,-2.214 -0.121,-1.319 0.538,-1.46 1.054,-0.46 1.339,-0.837 3.518,0.278 z"
           style="fill:#ffffff;fill-rule:evenodd"
           sodipodi:nodetypes="ccccccccccccc"
           id="path14556"
           inkscape:connector-curvature="0" />
        <path
           d="m -132.03,68.015 c -2.22,5.396 -4.79,13.558 -3.23,19.18 1.23,4.417 6.23,8.914 9.94,11.603 4.53,3.272 11.68,6.272 17.2,7.102 10.572,1.59 23.513,-0.21 35.475,-3.31 -0.006,-11.58 -27.825,1.1 -38.425,-3.555 -3.78,-1.66 -8.3,-5.577 -10.21,-9.235 -1.73,-3.299 -1.31,-8.6 -1.62,-12.313 -0.19,-2.338 -0.71,-5.511 -0.27,-7.814 0.27,-1.373 1.58,-2.898 1.89,-4.263 0.84,-3.815 3.98,-11.804 0.26,-13.024 -5.45,-1.79 -8.83,10.324 -11.01,15.629 z"
           style="fill:#000000;fill-opacity:0.24927003;fill-rule:evenodd"
           sodipodi:nodetypes="cssscsssssss"
           id="path14560"
           inkscape:connector-curvature="0" />
      </g>
    </g>
    <g
       inkscape:label="Layer 1"
       id="layer1-9"
       transform="matrix(0.46134315,0,0,0.46134315,4.2651467,858.04867)">
      <g
         transform="translate(-2.7634,-2.7634)"
         id="g8787">
        <path
           d="m 31.785,48.682 c -7.02,5.954 -9.777,13.262 -9.83,20.768 -0.054,7.505 2.186,15.209 6.382,21.956 3.215,5.682 6.576,13.704 12.356,17.674 5.373,5.4 12.349,9.61 21.98,10.51 7.87,-1.89 12.851,-2.99 18.752,-4.29 5.492,-2.92 12.313,-9.51 16.514,-12.99 C 106.07,94.718 107.12,88.04 110.35,78.472 109.7,70.128 109.6,59.1 103.58,50.564 96.258,43.859 86.098,39.619 75.296,37.816 64.494,36.014 53.049,36.65 43.155,39.697 c -1.762,0.575 -3.889,2.348 -5.932,4.213 -2.044,1.865 -4.006,3.824 -5.438,4.772 z"
           style="fill:#000000;fill-rule:evenodd"
           sodipodi:nodetypes="ccccccccccccc"
           id="path7652"
           inkscape:connector-curvature="0" />
        <path
           d="m 64.19,113.39 c 8.064,-0.42 13.148,-5.02 18.336,-8.11 6.544,-2.14 10.646,-7.835 14.377,-12.404 3.607,-4.306 5.587,-8.036 7.117,-15.39 -0.59,-4.171 1.21,-10.092 -3.75,-16.495 -1.534,-1.981 -2.702,-10.617 -6.892,-13.378 -4.19,-2.761 -9.226,-4.727 -14.142,-3.529 -6.277,1.531 -10.322,2.353 -14.088,2.406 -3.766,0.052 -7.254,-0.665 -12.415,-2.213 -5.21,-1.562 -8.304,-0.951 -10.997,0.868 -2.692,1.818 -1.839,8.956 -5.445,12.222 -5.026,4.554 -8.014,6.714 -8.17,12.442 -0.156,5.727 1.885,11.8 4.316,17.073 3.146,5.407 8.776,14.498 10.506,16.678 4.995,5.86 10.839,9.1 21.247,9.83 z"
           style="fill:#ff2a2a;fill-rule:evenodd"
           sodipodi:nodetypes="ccccccccccccccc"
           id="path7654"
           inkscape:connector-curvature="0" />
        <path
           d="m 61.553,29.998 c -4.094,0.456 -12.49,-4.047 -16.321,-2.084 -3.83,1.962 -8.704,5.151 -12.085,6.969 -7.852,1.379 -14.259,9.881 -16.624,15.873 -1.318,3.341 4.786,4.213 11.199,0.391 -8.51,13.443 3.24,13.439 13.103,2.769 1.703,-1.141 1.059,2.88 2.086,7.938 3.273,-0.954 7.056,-7.418 8.816,-13.104 5.187,16.835 7.75,5.137 9.53,4.474 2.764,3.63 13.352,9.65 11.39,-3.7 2.907,4.003 15.029,16.899 11.783,2.526 5.114,3.534 8.253,6.717 15.348,3.126 5.172,-4.78 0.832,-4.234 -2.498,-8.386 3.98,1.942 10.72,2.963 13.92,0.741 0.22,-8.183 -16.074,-17.008 -27.762,-15.312 -3.592,-1.876 -7.425,-3.367 -11.44,-4.37 -4.014,-1.003 -6.127,2.073 -10.445,2.149 z"
           style="fill:#000000;fill-rule:evenodd"
           sodipodi:nodetypes="cscccccccccccccsc"
           id="path7656"
           inkscape:connector-curvature="0" />
        <path
           d="m 48.066,32.87 c -1.71,0.86 -5.172,2.587 -9.173,6.284 -4.378,0.431 -15.765,6.1 -16.112,9.943 -0.139,0.193 8.329,-5.998 13.135,-4.435 -2.341,3.401 -5.825,10.442 -4.263,10.522 1.666,0.085 2.914,-1.455 4.975,-3.875 11.464,-22.472 3.2,16.922 14.647,-9.867 4.182,1.582 2.19,12.34 6.928,4.502 1.207,-2.393 2.279,-5.88 2.916,-5.904 2.872,11.181 10.536,16.164 5.666,-0.163 11.857,8.528 13.65,17.09 11.448,1.438 19.256,16.941 26.097,11.758 7.337,-1.695 3.67,-0.512 9.394,2.606 20.85,4.654 C 96.66,39.155 95.7,35.491 82.771,36.068 79.474,34.508 76.39,32.68 72.983,31.652 69.577,30.625 66.151,36.259 61.48,36.117"
           style="fill:#55d400;fill-rule:evenodd"
           sodipodi:nodetypes="cccccccccccccccc"
           id="path7696"
           inkscape:connector-curvature="0" />
        <path
           d="m 75.909,88.225 c -2.206,1.856 -1.489,3.333 2.418,4.39 2.219,0.295 2.317,-1.074 3.117,-2.612 0.335,-1.28 -0.425,-1.824 -1.693,-2.612 -1.326,0.116 -2.611,0.485 -3.842,0.834 z"
           style="fill:#1a1a1a;fill-opacity:0.24483002;fill-rule:evenodd"
           sodipodi:nodetypes="ccccc"
           id="path7828"
           inkscape:connector-curvature="0" />
        <path
           d="m 97.51,84.832 c -2.206,1.856 -1.489,3.334 2.418,4.39 2.222,0.295 2.322,-1.074 3.122,-2.611 0.33,-1.28 -0.43,-1.825 -1.7,-2.612 -1.32,0.116 -2.609,0.484 -3.84,0.833 z"
           style="fill:#1a1a1a;fill-opacity:0.24483002;fill-rule:evenodd"
           sodipodi:nodetypes="ccccc"
           id="path7834"
           inkscape:connector-curvature="0" />
        <path
           d="m 60.52,96.619 c -2.206,1.856 -1.489,3.333 2.418,4.391 2.219,0.29 2.317,-1.075 3.117,-2.613 0.335,-1.28 -0.425,-1.824 -1.693,-2.612 -1.326,0.116 -2.611,0.484 -3.842,0.834 z"
           style="fill:#1a1a1a;fill-opacity:0.24483002;fill-rule:evenodd"
           sodipodi:nodetypes="ccccc"
           id="path7836"
           inkscape:connector-curvature="0" />
        <path
           d="m 88.206,97.782 c -2.207,1.856 -1.49,3.338 2.417,4.388 2.219,0.3 2.318,-1.07 3.118,-2.609 0.335,-1.28 -0.426,-1.825 -1.694,-2.612 -1.326,0.116 -2.61,0.484 -3.841,0.833 z"
           style="fill:#1a1a1a;fill-opacity:0.24483002;fill-rule:evenodd"
           sodipodi:nodetypes="ccccc"
           id="path7838"
           inkscape:connector-curvature="0" />
        <path
           d="m 71.788,107.09 c -2.206,1.86 -1.49,3.33 2.418,4.39 2.219,0.29 2.317,-1.07 3.117,-2.61 0.335,-1.28 -0.425,-1.83 -1.693,-2.61 -1.327,0.11 -2.611,0.48 -3.842,0.83 z"
           style="fill:#1a1a1a;fill-opacity:0.24483002;fill-rule:evenodd"
           sodipodi:nodetypes="ccccc"
           id="path7842"
           inkscape:connector-curvature="0" />
        <path
           d="m 33.557,81.41 c -2.206,1.855 -1.489,3.333 2.418,4.39 2.219,0.294 2.317,-1.075 3.117,-2.612 0.335,-1.28 -0.425,-1.824 -1.693,-2.612 -1.326,0.116 -2.61,0.484 -3.842,0.834 z"
           style="fill:#1a1a1a;fill-opacity:0.24483002;fill-rule:evenodd"
           sodipodi:nodetypes="ccccc"
           id="path7850"
           inkscape:connector-curvature="0" />
        <path
           d="m 40.535,97.743 c -2.206,1.856 -1.489,3.337 2.418,4.387 2.219,0.3 2.317,-1.07 3.117,-2.608 0.335,-1.281 -0.425,-1.825 -1.693,-2.612 -1.326,0.116 -2.611,0.484 -3.842,0.833 z"
           style="fill:#1a1a1a;fill-opacity:0.24483002;fill-rule:evenodd"
           sodipodi:nodetypes="ccccc"
           id="path7852"
           inkscape:connector-curvature="0" />
        <path
           d="m 53.287,107.8 c -2.206,1.85 -1.489,3.33 2.418,4.39 2.219,0.29 2.317,-1.08 3.117,-2.61 0.335,-1.28 -0.425,-1.83 -1.693,-2.61 -1.326,0.11 -2.611,0.48 -3.842,0.83 z"
           style="fill:#1a1a1a;fill-opacity:0.24483002;fill-rule:evenodd"
           sodipodi:nodetypes="ccccc"
           id="path7878"
           inkscape:connector-curvature="0" />
        <path
           d="m 48.659,86.455 c -2.206,1.856 -1.489,3.333 2.418,4.39 2.219,0.295 2.317,-1.074 3.117,-2.611 0.335,-1.281 -0.425,-1.825 -1.693,-2.613 -1.326,0.117 -2.611,0.485 -3.842,0.834 z"
           style="fill:#1a1a1a;fill-opacity:0.24483002;fill-rule:evenodd"
           sodipodi:nodetypes="ccccc"
           id="path7880"
           inkscape:connector-curvature="0" />
        <path
           d="m 87.078,52.991 c -2.206,1.855 -1.489,3.333 2.418,4.39 2.219,0.294 2.317,-1.075 3.117,-2.612 0.335,-1.28 -0.425,-1.824 -1.693,-2.612 -1.326,0.116 -2.611,0.484 -3.842,0.834 z"
           style="fill:#1a1a1a;fill-opacity:0.24483002;fill-rule:evenodd"
           sodipodi:nodetypes="ccccc"
           id="path7882"
           inkscape:connector-curvature="0" />
        <path
           d="m 41.583,69.041 c -2.207,1.856 -1.49,3.333 2.417,4.39 2.219,0.295 2.318,-1.074 3.118,-2.611 0.335,-1.28 -0.426,-1.825 -1.694,-2.612 -1.326,0.116 -2.61,0.484 -3.841,0.833 z"
           style="fill:#1a1a1a;fill-opacity:0.24483002;fill-rule:evenodd"
           sodipodi:nodetypes="ccccc"
           id="path7886"
           inkscape:connector-curvature="0" />
        <path
           d="m 98.84,65.149 c -2.206,1.855 -1.489,3.333 2.42,4.39 2.22,0.294 2.32,-1.075 3.12,-2.612 0.33,-1.28 -0.43,-1.824 -1.7,-2.612 -1.32,0.116 -2.61,0.484 -3.84,0.834 z"
           style="fill:#1a1a1a;fill-opacity:0.24483002;fill-rule:evenodd"
           sodipodi:nodetypes="ccccc"
           id="path7888"
           inkscape:connector-curvature="0" />
        <path
           d="m 29.391,61.412 c -2.207,1.856 -1.49,3.334 2.418,4.39 2.219,0.295 2.317,-1.074 3.117,-2.611 0.335,-1.28 -0.425,-1.825 -1.693,-2.612 -1.327,0.116 -2.611,0.484 -3.842,0.833 z"
           style="fill:#1a1a1a;fill-opacity:0.24483002;fill-rule:evenodd"
           sodipodi:nodetypes="ccccc"
           id="path7896"
           inkscape:connector-curvature="0" />
        <path
           d="m 74.243,68.83 c -2.206,1.856 -1.489,3.333 2.418,4.39 2.219,0.294 2.317,-1.075 3.117,-2.612 0.335,-1.28 -0.425,-1.824 -1.693,-2.612 -1.326,0.116 -2.611,0.484 -3.842,0.834 z"
           style="fill:#1a1a1a;fill-opacity:0.24483002;fill-rule:evenodd"
           sodipodi:nodetypes="ccccc"
           id="path7898"
           inkscape:connector-curvature="0" />
        <path
           d="m 54.307,60.907 c -2.207,1.856 -1.49,3.333 2.417,4.39 2.219,0.295 2.318,-1.074 3.118,-2.611 0.335,-1.281 -0.426,-1.825 -1.694,-2.613 -1.326,0.116 -2.61,0.485 -3.841,0.834 z"
           style="fill:#1a1a1a;fill-opacity:0.24483002;fill-rule:evenodd"
           sodipodi:nodetypes="ccccc"
           id="path7908"
           inkscape:connector-curvature="0" />
        <path
           d="m 62.13,77.033 c -2.207,1.855 -1.49,3.333 2.418,4.39 2.219,0.294 2.317,-1.075 3.117,-2.612 0.335,-1.28 -0.425,-1.824 -1.693,-2.612 -1.327,0.116 -2.611,0.484 -3.842,0.834 z"
           style="fill:#1a1a1a;fill-opacity:0.24483002;fill-rule:evenodd"
           sodipodi:nodetypes="ccccc"
           id="path7972"
           inkscape:connector-curvature="0" />
        <path
           d="m 87.22,73.651 c -2.207,1.855 -1.49,3.333 2.418,4.39 2.219,0.294 2.317,-1.075 3.117,-2.612 0.335,-1.28 -0.425,-1.824 -1.693,-2.612 -1.327,0.116 -2.611,0.484 -3.842,0.834 z"
           style="fill:#1a1a1a;fill-opacity:0.24483002;fill-rule:evenodd"
           sodipodi:nodetypes="ccccc"
           id="path7974"
           inkscape:connector-curvature="0" />
        <path
           d="m 71.791,54.466 c -2.206,1.856 -1.489,3.333 2.418,4.39 2.219,0.295 2.317,-1.074 3.117,-2.611 0.335,-1.281 -0.425,-1.825 -1.693,-2.613 -1.327,0.116 -2.611,0.485 -3.842,0.834 z"
           style="fill:#1a1a1a;fill-opacity:0.24483002;fill-rule:evenodd"
           sodipodi:nodetypes="ccccc"
           id="path7976"
           inkscape:connector-curvature="0" />
        <path
           d="m 64.057,116.98 c 16.128,-0.84 23.561,-9.71 32.547,-17.354 4.146,-3.525 3.112,-3.771 5.396,-9.438 -3.073,-3.963 -8.339,6.99 -18.172,9.387 C 71.275,102.64 56.282,108.43 47.414,102.9 37.167,96.512 37.632,92.999 30.52,87.402 36.811,98.217 43.242,115.53 64.057,116.98 z"
           style="fill:#1a1a1a;fill-opacity:0.30344998;fill-rule:evenodd"
           sodipodi:nodetypes="cscsscc"
           id="path7984"
           inkscape:connector-curvature="0" />
      </g>
    </g>
    <g
       inkscape:label="Layer 1"
       id="layer1-8"
       transform="matrix(0.46134315,0,0,0.46134315,2.979925,923.95629)">
      <path
         d="m 27.996,63.576 -9.427,2.362 -6.284,7.088 -3.3384,9.879 -0.1963,10.524 2.1597,11.811 7.267,6.23 13.909,8.13 18.135,-2.9 c 0,0 8.018,-9.74 8.411,-11.24 0.393,-1.51 3.535,-14.823 3.535,-16.327 0,-1.503 -0.393,-9.664 -2.161,-11.382 -1.767,-1.718 -8.444,-7.302 -8.444,-7.302 L 40.957,68.73 35.262,67.442 27.996,63.576 z"
         style="fill:#ff0000;fill-rule:evenodd"
         sodipodi:nodetypes="cccccccccssscccc"
         id="path11838"
         inkscape:connector-curvature="0" />
      <path
         d="m 70.837,73.005 -5.698,8.545 -0.491,9.858 3.406,9.852 6.165,8.08 8.716,7.37 9.22,-0.51 16.235,-2.68 11.44,-16.652 c 0,0 1.37,-12.817 0.77,-14.234 -0.61,-1.416 -7.74,-13.72 -8.64,-14.855 -0.9,-1.134 -6.1,-7.012 -8.46,-7.041 -2.36,-0.029 -10.754,0.547 -10.754,0.547 l -9.035,6.311 -5.071,3.113 -7.803,2.296 z"
         style="fill:#ff0000;fill-rule:evenodd"
         sodipodi:nodetypes="cccccccccssscccc"
         id="path13623"
         inkscape:connector-curvature="0" />
      <path
         d="m 55.562,11.969 c -5.004,0.246 -11.59,9.05 -12.937,10.562 -0.717,0.806 -5.955,19.242 -6.344,20.813 -0.249,1.007 6.696,19.209 0.094,17.312 0,0 -7.684,-3.791 -11.094,-3.187 -10.413,3.242 -16.549,12.784 -19.968,22.562 -2.1627,8.342 -3.2151,17.855 -5e-4,26.059 6.9105,10.51 17.408,17.38 29.322,16.82 12.852,1.1 18.156,-0.54 24.804,-11.88 1.567,-2.52 1.434,-8.79 4.406,-8.87 7.518,12.18 8.852,18.43 28.156,19.18 8.02,-0.58 15.85,-2.72 21.09,-8.17 24.94,-25.215 5.61,-67.162 -31.465,-51.076 -0.058,0.074 -0.105,0.253 -0.031,0.312 0.023,0.019 0.072,-0.051 0.094,-0.031 0.028,0.026 0.006,0.118 -0.032,0.125 -0.033,0.006 -0.043,-0.066 -0.062,-0.094 -1.533,-2.269 -3.843,-5.128 -5.156,-7.531 -2.886,-5.279 -7.228,-12.481 -7.813,-18.469 -0.241,-2.468 0.623,-5.853 1.687,-8.094 1.737,-3.653 6.434,-6.99 8.5,-10.468 0.554,-0.933 1.905,-2.398 1.376,-3.344 -1.643,-2.933 -7.702,-1.821 -11.063,-1.781 -2.574,0.03 -6.61,-0.251 -8.437,1.562 -0.211,0.209 -0.095,1.031 -0.188,0.969 0,0 -3.161,-3.368 -4.938,-3.281 z M 57.75,29 c -0.138,0.677 -0.55,2.217 -0.5,2.5 0.191,1.081 7.066,18.808 7.719,20.281 0.411,0.93 16.246,9.857 10.437,13 -3.902,2.976 -6.319,5.091 -11.625,10.875 -2.967,0.979 -5.411,-4.94 -8.062,-6.594 -3.649,-2.275 -8.799,-6.729 -13.031,-5.968 -0.092,0.016 -0.241,0.128 -0.219,0.218 0.007,0.029 0.087,0.003 0.093,0.032 0.01,0.038 -0.057,0.109 -0.093,0.094 -0.035,-0.015 -10e-4,-0.088 0,-0.126 0.094,-2.826 0.166,-6.615 0.625,-9.406 0.984,-5.991 1.866,-14.48 5.187,-19.562 1.285,-1.966 3.967,-3.948 6.125,-4.875 C 55.337,29.069 57.75,29 57.75,29 z m 40.188,35.344 c 9.862,-1.492 16.812,6.336 18.992,14.915 4.16,10.799 0.87,19.014 -6.49,27.041 -6.1,7.11 -18.758,10.33 -28.58,8.9 -5.715,-3.75 -11.297,-11.57 -14.334,-17.772 -2.286,-6.454 -0.465,-14.593 4.005,-20.116 1.975,-1.786 2.901,-2.639 4.655,-4.642 1.187,-1.358 3.308,-2.348 4.658,-3.545 0.007,-0.006 0.025,-0.007 0.031,0 1.292,1.438 -0.456,4.487 -0.687,6.406 -0.449,3.719 -3.079,8.91 -1.657,12.375 1.454,3.543 6.29,8.254 10.094,7.813 2.278,-0.264 5.206,-3.679 4.813,-5.938 -0.416,-2.387 -5.786,-2.039 -6.907,-4.187 -4.087,-10.543 0.811,-19.1 11.407,-21.25 z M 26.544,64.92 c 2.704,0.017 4.521,7.252 7.206,6.924 1.718,-0.211 2.944,-5.236 4.156,-4 1.291,1.315 -3.02,3.061 -4.344,4.344 -2.567,2.487 -7.631,4.74 -8.687,8.156 -1.194,3.862 -0.417,10.855 2.906,13.156 1.799,1.246 6.07,0.83 7.219,-1.031 1.35,-2.187 -3.252,-5.611 -2.719,-8.125 0.96,-4.525 6.542,-12.917 11.013,-14.103 8.119,-0.612 15.173,8.649 17.675,16.071 -0.474,7.667 -3.713,21.148 -9.3,26.538 -7.777,3.47 -14.759,5.31 -23.073,3.33 -3.98,-1.31 -15.806,-9.02 -17.989,-12.6 C 8.6422,96.712 8.7826,88.096 10.285,81.022 12.327,74.746 19.701,66.015 26.544,64.92 z"
         style="fill:#000000;fill-rule:evenodd"
         sodipodi:nodetypes="cssscccccccccssssssssssssscssccssssssssssccccccssssssscccsssssssccccccc"
         id="path10951"
         inkscape:connector-curvature="0" />
      <path
         d="m 45.396,72.129 2.675,0.025 3.19,1.782 1.043,2.014 0.041,2.437 -1.423,2.045 -2.202,1.027 -2.967,-1.49 -1.434,-1.657 -1.281,-2.54 0.001,-1.733 1.325,-1.955 1.032,0.045 z"
         style="fill:#ffffff;fill-rule:evenodd"
         id="path13612"
         inkscape:connector-curvature="0" />
      <path
         d="m 103.86,65.912 2.67,0.035 3.19,1.793 1.04,2.018 0.03,2.438 -1.43,2.04 -2.21,1.018 -2.96,-1.501 -1.43,-1.662 -1.27,-2.544 0.01,-1.734 1.33,-1.95 1.03,0.049 z"
         style="fill:#ffffff;fill-rule:evenodd"
         id="path13631"
         inkscape:connector-curvature="0" />
      <path
         d="m 46.739,71.621 5.769,1.89 4.95,6.286 2.621,3.42 -3.848,4.841 -4.026,2.029 -5.004,-0.267 -5.091,-4.939 -1.924,-3.879 -1.108,-5.153 0.998,-2.761 2.094,-2.662 4.569,1.195 z"
         style="fill:#ffffff;fill-opacity:0.34311003;fill-rule:evenodd"
         sodipodi:nodetypes="ccccccccccccc"
         id="path13643"
         inkscape:connector-curvature="0" />
      <path
         d="m 102.17,65.069 6.82,1.43 3.48,7.208 1.56,4.111 -3.84,4.84 -4.03,2.029 -5,-0.267 -5.095,-4.938 -1.923,-3.879 -1.108,-5.153 0.998,-2.761 3.568,-3.353 4.57,0.733 z"
         style="fill:#ffffff;fill-opacity:0.34311003;fill-rule:evenodd"
         sodipodi:nodetypes="ccccccccccccc"
         id="path14530"
         inkscape:connector-curvature="0" />
    </g>
  </g>
  <g
     transform="translate(0,-732.36218)"
     id="g3270"
     inkscape:groupmode="layer"
     inkscape:label="medium"
     sodipodi:insensitive="true"
     style="display:none">
    <g
       transform="matrix(0.46134315,0,0,0.46134315,2.2077799,731.86726)"
       id="g3272"
       inkscape:label="Layer 1">
      <g
         id="g3274"
         transform="translate(466,7)">
        <path
           inkscape:connector-curvature="0"
           id="path3276"
           sodipodi:nodetypes="cccccccccccccc"
           style="fill:#000000;fill-rule:evenodd"
           d="m -403.94,6.1085 c -0.11,0.6438 -0.11,5.5325 -0.03,10.272 -16.88,0.422 -33.59,7.612 -41.12,24.15 -4.14,9.216 -5.13,19.549 -4.6,29.638 2.39,11.003 5.31,22.594 10.9,32.302 8.2,12.12 22.48,14.26 35.96,14.87 11.64,-0.41 23.23,-3.37 33.68,-8.81 8.23,-4.12 12.94,-11.714 16.01,-20.549 2.2,-11.553 2.84,-24.341 0,-35.876 -4.73,-7.1 -6.93,-16.813 -12.61,-23.12 -9.05,-7.288 -20.89,-13.778 -32.53,-10.245 l 0.29,-4.097 4.54,-15.797 c -5.07,0.74071 -6.69,-4.4028 -10.49,7.2625 z" />
        <path
           inkscape:connector-curvature="0"
           id="path3278"
           sodipodi:nodetypes="csccssscsscc"
           style="fill:#ff9000;fill-rule:evenodd"
           d="m -425.12,27.367 c -8.54,5.544 -20.03,20.633 -20.24,30.943 -0.33,16.837 4.36,39.052 19.13,47.94 13.05,5.92 21.86,7.01 35.67,4.58 13.6,-0.78 22.15,-7.9 27.52,-14.702 5.37,-6.801 7.17,-28.681 7.18,-31.188 0.1,-14.002 -8.24,-28.501 -18.89,-33.955 -6.78,-3.467 -15.97,-7.448 -23.7,-7.563 -1.87,0.567 -0.3,13.374 -1.41,13.17 -1.12,-0.205 -5.56,3.294 -6.21,0.217 -0.65,-3.076 3.2,-12.893 1.08,-12.396 -8.5,1.283 -12,0.118 -20.13,2.954 z" />
      </g>
    </g>
    <g
       transform="matrix(0.46134315,0,0,0.46134315,2.5661903,796.32029)"
       id="g3374"
       inkscape:label="Layer 1">
      <g
         id="g3376"
         transform="translate(5,-2)">
        <path
           inkscape:connector-curvature="0"
           id="path3378"
           sodipodi:nodetypes="cccsssssssssssssssssscccc"
           style="fill:#000000;fill-rule:evenodd"
           d="m 61.945,6.3822 c -0.365,0.7862 -5.127,14.674 -5.54,15.857 -0.113,0.608 -0.115,5.225 -0.029,9.702 -4.156,-0.226 -9.634,1.376 -13.16,1.817 -6.118,0.766 -15.831,6.266 -20.782,9.94 -3.171,2.353 -5.462,7.496 -7.182,11.05 -1.413,2.922 -2.829,7.046 -3.458,10.23 -1.035,5.231 -1.682,12.457 -1.143,17.762 0.399,3.929 2.205,8.957 3.488,12.692 1.88,5.478 4,13.148 7.415,17.818 9.89,13.54 11.73,8.71 17.528,10.91 5.239,1.98 12.833,3.09 18.436,3.13 6.058,0.05 14.076,-1.52 19.932,-3.08 4.262,-1.12 9.859,-3.16 13.746,-5.24 2.747,-1.47 6.386,-3.69 8.471,-6.01 3.083,-3.43 6.173,-8.99 7.533,-13.396 1.74,-5.611 1.79,-13.617 1.7,-19.491 -0.07,-4.344 -0.33,-10.269 -1.7,-14.392 -1.19,-3.589 -4.41,-7.655 -6.3,-10.933 -1.889,-3.277 -3.306,-8.596 -6.304,-10.903 -5.223,-4.02 -13.577,-9.308 -20.135,-9.969 -3.631,-0.366 -8.95,-1.227 -12.399,0.293 l 0.294,-3.869 4.543,-14.919 -4.954,-8.9988 z" />
        <path
           inkscape:connector-curvature="0"
           id="path3380"
           sodipodi:nodetypes="czzzzzzzzzzzzcsszzz"
           style="fill:#71c837;fill-rule:evenodd"
           d="m 31.043,45.324 c -4,1.196 -7.561,7.579 -10.069,11.187 -2.508,3.608 -5.218,10.275 -5.638,14.805 -0.42,4.53 0.171,8.018 1.456,12.675 1.285,4.657 2.671,11.687 5.293,16.229 2.623,4.54 5.015,11.19 9.146,14.11 4.13,2.93 11.589,3.14 17.625,3.9 6.037,0.76 18.023,0.84 25.479,-0.87 7.456,-1.71 17.947,-3.9 23.319,-10.33 5.376,-6.42 7.616,-27.112 7.186,-29.453 C 104.4,75.237 97.555,62.182 96.558,60.082 95.561,57.982 89.589,46.825 85.938,45.508 82.286,44.192 71.986,40.545 69.093,40.484 66.2,40.423 64.601,39.951 62.24,38.366 c -1.305,2.638 -0.294,12.631 -1.41,12.438 -1.117,-0.193 -5.562,3.111 -6.211,0.205 -0.649,-2.905 3.208,-12.177 1.08,-11.708 -2.128,0.47 -8.114,1.855 -11.413,2.042 -3.3,0.187 -9.242,2.785 -13.243,3.981 z" />
      </g>
    </g>
    <g
       transform="matrix(0.46134315,0,0,0.46134315,2.8201515,989.53772)"
       id="g3392"
       inkscape:label="Layer 1">
      <g
         id="g3394"
         transform="translate(159,18)">
        <path
           inkscape:connector-curvature="0"
           id="path3396"
           sodipodi:nodetypes="cccccccssscccc"
           style="fill:#aad400;fill-rule:evenodd"
           d="m -123.12,41.576 -2.26,8.176 -8.97,21.358 -1.55,18.563 14.35,13.547 24.187,4.24 39.943,-12.738 c 0,0 -0.929,-26.109 -1.331,-28.095 C -59.154,64.64 -70.678,55.885 -71.593,54.103 -72.508,52.32 -76.107,29.826 -79.459,28.708 -82.81,27.59 -92.5,21.602 -92.5,21.602 l -14.88,3.478 -8.21,1.434 -7.53,15.062 z" />
        <path
           inkscape:connector-curvature="0"
           id="path3398"
           sodipodi:nodetypes="cssscccsssssssssccssscccssssssccsssscccssssss"
           style="fill:#000000;fill-rule:evenodd"
           d="m -88.275,-14.525 c -3.733,0.154 -9.285,5.8289 -10.406,6.8435 -0.536,0.485 -4.789,12.443 -5.089,13.469 -0.25,0.8303 3.76,13.728 0.21,14.438 0,-0.001 -7.94,0.116 -10.46,2.092 -5.96,9.592 -9.69,20.468 -13.38,31.219 -6.16,6.518 -7.88,12.386 -8.59,21.094 -0.46,4.383 -2.6,10.55 -1,14.656 2.21,5.685 9.35,11.163 14.75,14.003 7.07,3.71 18.07,5.38 26.059,5.5 8.774,0.12 20.675,-1.86 28.781,-5.22 3.89,-1.61 9.012,-4.628 11.531,-8.002 2.132,-2.855 3.579,-7.72 3.719,-11.281 0.135,-3.433 -1.781,-7.819 -2.719,-11.125 -0.731,-2.578 -1.368,-6.203 -2.75,-8.5 -2.019,-3.357 -7.344,-5.869 -9.093,-9.375 -1.513,-3.031 -0.832,-7.895 -1.75,-11.156 -2.545,-11.054 -5.608,-21.603 -17.438,-24.563 -3.816,-0.807 -10.334,3.067 -13,0.219 -1.47,-1.572 0.166,-5.045 0.594,-7.156 0.794,-3.9167 1.707,-9.4983 4.156,-12.656 1.077,-1.3894 3.282,-2.5662 4.938,-3.1565 13.906,-0.4341 17.076,-5.3461 0.937,-11.344 z m -11.815,36.281 c 0.05,-0.049 0.174,-0.045 0.221,0 0.601,0.567 0.078,1.927 0.157,2.75 0.053,0.556 -0.173,1.479 0.25,1.844 3.125,2.693 10.17,-2.238 13.75,-0.188 3.836,2.198 7.606,6.946 9.231,11.058 2.3,5.819 1.791,15.226 4.875,20.671 1.023,1.805 1.506,4.756 2.987,6.209 5.568,3.616 8.56,8.35 9.629,14.43 0.647,2.934 0.854,7.236 -0.379,9.976 -2.404,5.343 -9.774,9.134 -15.307,11.06 -5.822,2.024 -15.873,3.574 -22.036,3.704 -6.258,0.13 -14.948,-2.02 -20.718,-4.452 -5.06,-2.136 -12.14,-6.43 -14.25,-11.5 0.56,-5.987 0.06,-13.225 1.91,-19.093 2.29,-3.291 4.11,-7.765 6.45,-11.036 1.54,-2.687 4.22,-11.269 5.03,-14.259 0.81,-2.992 1.12,-0.286 2.33,-3.143 1.61,-3.818 3.58,-9.558 7,-11.906 2.34,-1.611 7.56,0.653 9.341,-1.563 0.341,-0.424 -0.043,-1.27 -0.093,-1.812 -0.078,-0.829 -0.918,-2.123 -0.378,-2.75 z" />
      </g>
    </g>
    <g
       transform="matrix(0.46134315,0,0,0.46134315,4.2651467,858.04867)"
       id="g3410"
       inkscape:label="Layer 1">
      <g
         id="g3412"
         transform="translate(-2.7634,-2.7634)">
        <path
           inkscape:connector-curvature="0"
           id="path3414"
           sodipodi:nodetypes="ccccccccccccc"
           style="fill:#000000;fill-rule:evenodd"
           d="m 31.785,48.682 c -7.02,5.954 -9.777,13.262 -9.83,20.768 -0.054,7.505 2.186,15.209 6.382,21.956 3.215,5.682 6.576,13.704 12.356,17.674 5.373,5.4 12.349,9.61 21.98,10.51 7.87,-1.89 12.851,-2.99 18.752,-4.29 5.492,-2.92 12.313,-9.51 16.514,-12.99 C 106.07,94.718 107.12,88.04 110.35,78.472 109.7,70.128 109.6,59.1 103.58,50.564 96.258,43.859 86.098,39.619 75.296,37.816 64.494,36.014 53.049,36.65 43.155,39.697 c -1.762,0.575 -3.889,2.348 -5.932,4.213 -2.044,1.865 -4.006,3.824 -5.438,4.772 z" />
        <path
           inkscape:connector-curvature="0"
           id="path3416"
           sodipodi:nodetypes="ccccccccccccccc"
           style="fill:#ff2a2a;fill-rule:evenodd"
           d="m 64.19,113.39 c 8.064,-0.42 13.148,-5.02 18.336,-8.11 6.544,-2.14 10.646,-7.835 14.377,-12.404 3.607,-4.306 5.587,-8.036 7.117,-15.39 -0.59,-4.171 1.21,-10.092 -3.75,-16.495 -1.534,-1.981 -2.702,-10.617 -6.892,-13.378 -4.19,-2.761 -9.226,-4.727 -14.142,-3.529 -6.277,1.531 -10.322,2.353 -14.088,2.406 -3.766,0.052 -7.254,-0.665 -12.415,-2.213 -5.21,-1.562 -8.304,-0.951 -10.997,0.868 -2.692,1.818 -1.839,8.956 -5.445,12.222 -5.026,4.554 -8.014,6.714 -8.17,12.442 -0.156,5.727 1.885,11.8 4.316,17.073 3.146,5.407 8.776,14.498 10.506,16.678 4.995,5.86 10.839,9.1 21.247,9.83 z" />
        <path
           inkscape:connector-curvature="0"
           id="path3418"
           sodipodi:nodetypes="cscccccccccccccsc"
           style="fill:#000000;fill-rule:evenodd"
           d="m 61.553,29.998 c -4.094,0.456 -12.49,-4.047 -16.321,-2.084 -3.83,1.962 -8.704,5.151 -12.085,6.969 -7.852,1.379 -14.259,9.881 -16.624,15.873 -1.318,3.341 4.786,4.213 11.199,0.391 -8.51,13.443 3.24,13.439 13.103,2.769 1.703,-1.141 1.059,2.88 2.086,7.938 3.273,-0.954 7.056,-7.418 8.816,-13.104 5.187,16.835 7.75,5.137 9.53,4.474 2.764,3.63 13.352,9.65 11.39,-3.7 2.907,4.003 15.029,16.899 11.783,2.526 5.114,3.534 8.253,6.717 15.348,3.126 5.172,-4.78 0.832,-4.234 -2.498,-8.386 3.98,1.942 10.72,2.963 13.92,0.741 0.22,-8.183 -16.074,-17.008 -27.762,-15.312 -3.592,-1.876 -7.425,-3.367 -11.44,-4.37 -4.014,-1.003 -6.127,2.073 -10.445,2.149 z" />
        <path
           inkscape:connector-curvature="0"
           id="path3420"
           sodipodi:nodetypes="cccccccccccccccc"
           style="fill:#55d400;fill-rule:evenodd"
           d="m 48.066,32.87 c -1.71,0.86 -5.172,2.587 -9.173,6.284 -4.378,0.431 -15.765,6.1 -16.112,9.943 -0.139,0.193 8.329,-5.998 13.135,-4.435 -2.341,3.401 -5.825,10.442 -4.263,10.522 1.666,0.085 2.914,-1.455 4.975,-3.875 11.464,-22.472 3.2,16.922 14.647,-9.867 4.182,1.582 2.19,12.34 6.928,4.502 1.207,-2.393 2.279,-5.88 2.916,-5.904 2.872,11.181 10.536,16.164 5.666,-0.163 11.857,8.528 13.65,17.09 11.448,1.438 19.256,16.941 26.097,11.758 7.337,-1.695 3.67,-0.512 9.394,2.606 20.85,4.654 C 96.66,39.155 95.7,35.491 82.771,36.068 79.474,34.508 76.39,32.68 72.983,31.652 69.577,30.625 66.151,36.259 61.48,36.117" />
      </g>
    </g>
    <g
       transform="matrix(0.46134315,0,0,0.46134315,2.979925,923.95629)"
       id="g3460"
       inkscape:label="Layer 1">
      <path
         inkscape:connector-curvature="0"
         id="path3462"
         sodipodi:nodetypes="cccccccccssscccc"
         style="fill:#ff0000;fill-rule:evenodd"
         d="m 27.996,63.576 -9.427,2.362 -6.284,7.088 -3.3384,9.879 -0.1963,10.524 2.1597,11.811 7.267,6.23 13.909,8.13 18.135,-2.9 c 0,0 8.018,-9.74 8.411,-11.24 0.393,-1.51 3.535,-14.823 3.535,-16.327 0,-1.503 -0.393,-9.664 -2.161,-11.382 -1.767,-1.718 -8.444,-7.302 -8.444,-7.302 L 40.957,68.73 35.262,67.442 27.996,63.576 z" />
      <path
         inkscape:connector-curvature="0"
         id="path3464"
         sodipodi:nodetypes="cccccccccssscccc"
         style="fill:#ff0000;fill-rule:evenodd"
         d="m 70.837,73.005 -5.698,8.545 -0.491,9.858 3.406,9.852 6.165,8.08 8.716,7.37 9.22,-0.51 16.235,-2.68 11.44,-16.652 c 0,0 1.37,-12.817 0.77,-14.234 -0.61,-1.416 -7.74,-13.72 -8.64,-14.855 -0.9,-1.134 -6.1,-7.012 -8.46,-7.041 -2.36,-0.029 -10.754,0.547 -10.754,0.547 l -9.035,6.311 -5.071,3.113 -7.803,2.296 z" />
      <path
         inkscape:connector-curvature="0"
         id="path3466"
         sodipodi:nodetypes="cssscccccccccssssssssssssscssccssssssssssccccccssssssscccsssssssccccccc"
         style="fill:#000000;fill-rule:evenodd"
         d="m 55.562,11.969 c -5.004,0.246 -11.59,9.05 -12.937,10.562 -0.717,0.806 -5.955,19.242 -6.344,20.813 -0.249,1.007 6.696,19.209 0.094,17.312 0,0 -7.684,-3.791 -11.094,-3.187 -10.413,3.242 -16.549,12.784 -19.968,22.562 -2.1627,8.342 -3.2151,17.855 -5e-4,26.059 6.9105,10.51 17.408,17.38 29.322,16.82 12.852,1.1 18.156,-0.54 24.804,-11.88 1.567,-2.52 1.434,-8.79 4.406,-8.87 7.518,12.18 8.852,18.43 28.156,19.18 8.02,-0.58 15.85,-2.72 21.09,-8.17 24.94,-25.215 5.61,-67.162 -31.465,-51.076 -0.058,0.074 -0.105,0.253 -0.031,0.312 0.023,0.019 0.072,-0.051 0.094,-0.031 0.028,0.026 0.006,0.118 -0.032,0.125 -0.033,0.006 -0.043,-0.066 -0.062,-0.094 -1.533,-2.269 -3.843,-5.128 -5.156,-7.531 -2.886,-5.279 -7.228,-12.481 -7.813,-18.469 -0.241,-2.468 0.623,-5.853 1.687,-8.094 1.737,-3.653 6.434,-6.99 8.5,-10.468 0.554,-0.933 1.905,-2.398 1.376,-3.344 -1.643,-2.933 -7.702,-1.821 -11.063,-1.781 -2.574,0.03 -6.61,-0.251 -8.437,1.562 -0.211,0.209 -0.095,1.031 -0.188,0.969 0,0 -3.161,-3.368 -4.938,-3.281 z M 57.75,29 c -0.138,0.677 -0.55,2.217 -0.5,2.5 0.191,1.081 7.066,18.808 7.719,20.281 0.411,0.93 16.246,9.857 10.437,13 -3.902,2.976 -6.319,5.091 -11.625,10.875 -2.967,0.979 -5.411,-4.94 -8.062,-6.594 -3.649,-2.275 -8.799,-6.729 -13.031,-5.968 -0.092,0.016 -0.241,0.128 -0.219,0.218 0.007,0.029 0.087,0.003 0.093,0.032 0.01,0.038 -0.057,0.109 -0.093,0.094 -0.035,-0.015 -10e-4,-0.088 0,-0.126 0.094,-2.826 0.166,-6.615 0.625,-9.406 0.984,-5.991 1.866,-14.48 5.187,-19.562 1.285,-1.966 3.967,-3.948 6.125,-4.875 C 55.337,29.069 57.75,29 57.75,29 z m 40.188,35.344 c 9.862,-1.492 16.812,6.336 18.992,14.915 4.16,10.799 0.87,19.014 -6.49,27.041 -6.1,7.11 -18.758,10.33 -28.58,8.9 -5.715,-3.75 -11.297,-11.57 -14.334,-17.772 -2.286,-6.454 -0.465,-14.593 4.005,-20.116 1.975,-1.786 2.901,-2.639 4.655,-4.642 1.187,-1.358 3.308,-2.348 4.658,-3.545 0.007,-0.006 0.025,-0.007 0.031,0 1.292,1.438 -0.456,4.487 -0.687,6.406 -0.449,3.719 -3.079,8.91 -1.657,12.375 1.454,3.543 6.29,8.254 10.094,7.813 2.278,-0.264 5.206,-3.679 4.813,-5.938 -0.416,-2.387 -5.786,-2.039 -6.907,-4.187 -4.087,-10.543 0.811,-19.1 11.407,-21.25 z M 26.544,64.92 c 2.704,0.017 4.521,7.252 7.206,6.924 1.718,-0.211 2.944,-5.236 4.156,-4 1.291,1.315 -3.02,3.061 -4.344,4.344 -2.567,2.487 -7.631,4.74 -8.687,8.156 -1.194,3.862 -0.417,10.855 2.906,13.156 1.799,1.246 6.07,0.83 7.219,-1.031 1.35,-2.187 -3.252,-5.611 -2.719,-8.125 0.96,-4.525 6.542,-12.917 11.013,-14.103 8.119,-0.612 15.173,8.649 17.675,16.071 -0.474,7.667 -3.713,21.148 -9.3,26.538 -7.777,3.47 -14.759,5.31 -23.073,3.33 -3.98,-1.31 -15.806,-9.02 -17.989,-12.6 C 8.6422,96.712 8.7826,88.096 10.285,81.022 12.327,74.746 19.701,66.015 26.544,64.92 z" />
    </g>
  </g>
  <g
     inkscape:label="low"
     inkscape:groupmode="layer"
     id="g3682"
     transform="translate(0,-732.36218)"
     style="display:none">
    <g
       inkscape:label="Layer 1"
       id="g3684"
       transform="matrix(0.46134315,0,0,0.46134315,2.2077799,731.86726)">
      <g
         transform="translate(466,7)"
         id="g3686">
        <path
           d="m -403.94,6.1085 c -0.11,0.6438 -0.11,5.5325 -0.03,10.272 -16.88,0.422 -33.59,7.612 -41.12,24.15 -4.14,9.216 -5.13,19.549 -4.6,29.638 2.39,11.003 5.31,22.594 10.9,32.302 8.2,12.12 22.48,14.26 35.96,14.87 11.64,-0.41 23.23,-3.37 33.68,-8.81 8.23,-4.12 12.94,-11.714 16.01,-20.549 2.2,-11.553 2.84,-24.341 0,-35.876 -4.73,-7.1 -6.93,-16.813 -12.61,-23.12 -9.05,-7.288 -20.89,-13.778 -32.53,-10.245 l 0.29,-4.097 4.54,-15.797 c -5.07,0.74071 -6.69,-4.4028 -10.49,7.2625 z"
           style="fill:#000000;fill-rule:evenodd"
           sodipodi:nodetypes="cccccccccccccc"
           id="path3688"
           inkscape:connector-curvature="0" />
        <path
           d="m -425.12,27.367 c -8.54,5.544 -20.03,20.633 -20.24,30.943 -0.33,16.837 4.36,39.052 19.13,47.94 13.05,5.92 21.86,7.01 35.67,4.58 13.6,-0.78 22.15,-7.9 27.52,-14.702 5.37,-6.801 7.17,-28.681 7.18,-31.188 0.1,-14.002 -8.24,-28.501 -18.89,-33.955 -6.78,-3.467 -15.97,-7.448 -23.7,-7.563 -1.87,0.567 -0.3,13.374 -1.41,13.17 -1.12,-0.205 -5.56,3.294 -6.21,0.217 -0.65,-3.076 3.2,-12.893 1.08,-12.396 -8.5,1.283 -12,0.118 -20.13,2.954 z"
           style="fill:#ffffff;fill-rule:evenodd"
           sodipodi:nodetypes="csccssscsscc"
           id="path3690"
           inkscape:connector-curvature="0" />
      </g>
    </g>
    <g
       inkscape:label="Layer 1"
       id="g3692"
       transform="matrix(0.46134315,0,0,0.46134315,2.5661903,796.32029)">
      <g
         transform="translate(5,-2)"
         id="g3694">
        <path
           d="m 61.945,6.3822 c -0.365,0.7862 -5.127,14.674 -5.54,15.857 -0.113,0.608 -0.115,5.225 -0.029,9.702 -4.156,-0.226 -9.634,1.376 -13.16,1.817 -6.118,0.766 -15.831,6.266 -20.782,9.94 -3.171,2.353 -5.462,7.496 -7.182,11.05 -1.413,2.922 -2.829,7.046 -3.458,10.23 -1.035,5.231 -1.682,12.457 -1.143,17.762 0.399,3.929 2.205,8.957 3.488,12.692 1.88,5.478 4,13.148 7.415,17.818 9.89,13.54 11.73,8.71 17.528,10.91 5.239,1.98 12.833,3.09 18.436,3.13 6.058,0.05 14.076,-1.52 19.932,-3.08 4.262,-1.12 9.859,-3.16 13.746,-5.24 2.747,-1.47 6.386,-3.69 8.471,-6.01 3.083,-3.43 6.173,-8.99 7.533,-13.396 1.74,-5.611 1.79,-13.617 1.7,-19.491 -0.07,-4.344 -0.33,-10.269 -1.7,-14.392 -1.19,-3.589 -4.41,-7.655 -6.3,-10.933 -1.889,-3.277 -3.306,-8.596 -6.304,-10.903 -5.223,-4.02 -13.577,-9.308 -20.135,-9.969 -3.631,-0.366 -8.95,-1.227 -12.399,0.293 l 0.294,-3.869 4.543,-14.919 -4.954,-8.9988 z"
           style="fill:#000000;fill-rule:evenodd"
           sodipodi:nodetypes="cccsssssssssssssssssscccc"
           id="path3696"
           inkscape:connector-curvature="0" />
        <path
           d="m 31.043,45.324 c -4,1.196 -7.561,7.579 -10.069,11.187 -2.508,3.608 -5.218,10.275 -5.638,14.805 -0.42,4.53 0.171,8.018 1.456,12.675 1.285,4.657 2.671,11.687 5.293,16.229 2.623,4.54 5.015,11.19 9.146,14.11 4.13,2.93 11.589,3.14 17.625,3.9 6.037,0.76 18.023,0.84 25.479,-0.87 7.456,-1.71 17.947,-3.9 23.319,-10.33 5.376,-6.42 7.616,-27.112 7.186,-29.453 C 104.4,75.237 97.555,62.182 96.558,60.082 95.561,57.982 89.589,46.825 85.938,45.508 82.286,44.192 71.986,40.545 69.093,40.484 66.2,40.423 64.601,39.951 62.24,38.366 c -1.305,2.638 -0.294,12.631 -1.41,12.438 -1.117,-0.193 -5.562,3.111 -6.211,0.205 -0.649,-2.905 3.208,-12.177 1.08,-11.708 -2.128,0.47 -8.114,1.855 -11.413,2.042 -3.3,0.187 -9.242,2.785 -13.243,3.981 z"
           style="fill:#ffffff;fill-rule:evenodd"
           sodipodi:nodetypes="czzzzzzzzzzzzcsszzz"
           id="path3698"
           inkscape:connector-curvature="0" />
      </g>
    </g>
    <g
       inkscape:label="Layer 1"
       id="g3700"
       transform="matrix(0.46134315,0,0,0.46134315,2.8201515,989.53772)">
      <g
         transform="translate(159,18)"
         id="g3702">
        <path
           d="m -123.12,41.576 -2.26,8.176 -8.97,21.358 -1.55,18.563 14.35,13.547 24.187,4.24 39.943,-12.738 c 0,0 -0.929,-26.109 -1.331,-28.095 C -59.154,64.64 -70.678,55.885 -71.593,54.103 -72.508,52.32 -76.107,29.826 -79.459,28.708 -82.81,27.59 -92.5,21.602 -92.5,21.602 l -14.88,3.478 -8.21,1.434 -7.53,15.062 z"
           style="fill:#ffffff;fill-rule:evenodd"
           sodipodi:nodetypes="cccccccssscccc"
           id="path3704"
           inkscape:connector-curvature="0" />
        <path
           d="m -88.275,-14.525 c -3.733,0.154 -9.285,5.8289 -10.406,6.8435 -0.536,0.485 -4.789,12.443 -5.089,13.469 -0.25,0.8303 3.76,13.728 0.21,14.438 0,-0.001 -7.94,0.116 -10.46,2.092 -5.96,9.592 -9.69,20.468 -13.38,31.219 -6.16,6.518 -7.88,12.386 -8.59,21.094 -0.46,4.383 -2.6,10.55 -1,14.656 2.21,5.685 9.35,11.163 14.75,14.003 7.07,3.71 18.07,5.38 26.059,5.5 8.774,0.12 20.675,-1.86 28.781,-5.22 3.89,-1.61 9.012,-4.628 11.531,-8.002 2.132,-2.855 3.579,-7.72 3.719,-11.281 0.135,-3.433 -1.781,-7.819 -2.719,-11.125 -0.731,-2.578 -1.368,-6.203 -2.75,-8.5 -2.019,-3.357 -7.344,-5.869 -9.093,-9.375 -1.513,-3.031 -0.832,-7.895 -1.75,-11.156 -2.545,-11.054 -5.608,-21.603 -17.438,-24.563 -3.816,-0.807 -10.334,3.067 -13,0.219 -1.47,-1.572 0.166,-5.045 0.594,-7.156 0.794,-3.9167 1.707,-9.4983 4.156,-12.656 1.077,-1.3894 3.282,-2.5662 4.938,-3.1565 13.906,-0.4341 17.076,-5.3461 0.937,-11.344 z m -11.815,36.281 c 0.05,-0.049 0.174,-0.045 0.221,0 0.601,0.567 0.078,1.927 0.157,2.75 0.053,0.556 -0.173,1.479 0.25,1.844 3.125,2.693 10.17,-2.238 13.75,-0.188 3.836,2.198 7.606,6.946 9.231,11.058 2.3,5.819 1.791,15.226 4.875,20.671 1.023,1.805 1.506,4.756 2.987,6.209 5.568,3.616 8.56,8.35 9.629,14.43 0.647,2.934 0.854,7.236 -0.379,9.976 -2.404,5.343 -9.774,9.134 -15.307,11.06 -5.822,2.024 -15.873,3.574 -22.036,3.704 -6.258,0.13 -14.948,-2.02 -20.718,-4.452 -5.06,-2.136 -12.14,-6.43 -14.25,-11.5 0.56,-5.987 0.06,-13.225 1.91,-19.093 2.29,-3.291 4.11,-7.765 6.45,-11.036 1.54,-2.687 4.22,-11.269 5.03,-14.259 0.81,-2.992 1.12,-0.286 2.33,-3.143 1.61,-3.818 3.58,-9.558 7,-11.906 2.34,-1.611 7.56,0.653 9.341,-1.563 0.341,-0.424 -0.043,-1.27 -0.093,-1.812 -0.078,-0.829 -0.918,-2.123 -0.378,-2.75 z"
           style="fill:#000000;fill-rule:evenodd"
           sodipodi:nodetypes="cssscccsssssssssccssscccssssssccsssscccssssss"
           id="path3706"
           inkscape:connector-curvature="0" />
      </g>
    </g>
    <g
       inkscape:label="Layer 1"
       id="g3708"
       transform="matrix(0.46134315,0,0,0.46134315,4.2651467,858.04867)">
      <g
         transform="translate(-2.7634,-2.7634)"
         id="g3710">
        <path
           d="m 31.785,48.682 c -7.02,5.954 -9.777,13.262 -9.83,20.768 -0.054,7.505 2.186,15.209 6.382,21.956 3.215,5.682 6.576,13.704 12.356,17.674 5.373,5.4 12.349,9.61 21.98,10.51 7.87,-1.89 12.851,-2.99 18.752,-4.29 5.492,-2.92 12.313,-9.51 16.514,-12.99 C 106.07,94.718 107.12,88.04 110.35,78.472 109.7,70.128 109.6,59.1 103.58,50.564 96.258,43.859 86.098,39.619 75.296,37.816 64.494,36.014 53.049,36.65 43.155,39.697 c -1.762,0.575 -3.889,2.348 -5.932,4.213 -2.044,1.865 -4.006,3.824 -5.438,4.772 z"
           style="fill:#000000;fill-rule:evenodd"
           sodipodi:nodetypes="ccccccccccccc"
           id="path3712"
           inkscape:connector-curvature="0" />
        <path
           d="m 64.19,113.39 c 8.064,-0.42 13.148,-5.02 18.336,-8.11 6.544,-2.14 10.646,-7.835 14.377,-12.404 3.607,-4.306 5.587,-8.036 7.117,-15.39 -0.59,-4.171 1.21,-10.092 -3.75,-16.495 -1.534,-1.981 -2.702,-10.617 -6.892,-13.378 -4.19,-2.761 -9.226,-4.727 -14.142,-3.529 -6.277,1.531 -10.322,2.353 -14.088,2.406 -3.766,0.052 -7.254,-0.665 -12.415,-2.213 -5.21,-1.562 -8.304,-0.951 -10.997,0.868 -2.692,1.818 -1.839,8.956 -5.445,12.222 -5.026,4.554 -8.014,6.714 -8.17,12.442 -0.156,5.727 1.885,11.8 4.316,17.073 3.146,5.407 8.776,14.498 10.506,16.678 4.995,5.86 10.839,9.1 21.247,9.83 z"
           style="fill:#ffffff;fill-rule:evenodd"
           sodipodi:nodetypes="ccccccccccccccc"
           id="path3714"
           inkscape:connector-curvature="0" />
        <path
           d="m 61.553,29.998 c -4.094,0.456 -12.49,-4.047 -16.321,-2.084 -3.83,1.962 -8.704,5.151 -12.085,6.969 -7.852,1.379 -14.259,9.881 -16.624,15.873 -1.318,3.341 4.786,4.213 11.199,0.391 -8.51,13.443 3.24,13.439 13.103,2.769 1.703,-1.141 1.059,2.88 2.086,7.938 3.273,-0.954 7.056,-7.418 8.816,-13.104 5.187,16.835 7.75,5.137 9.53,4.474 2.764,3.63 13.352,9.65 11.39,-3.7 2.907,4.003 15.029,16.899 11.783,2.526 5.114,3.534 8.253,6.717 15.348,3.126 5.172,-4.78 0.832,-4.234 -2.498,-8.386 3.98,1.942 10.72,2.963 13.92,0.741 0.22,-8.183 -16.074,-17.008 -27.762,-15.312 -3.592,-1.876 -7.425,-3.367 -11.44,-4.37 -4.014,-1.003 -6.127,2.073 -10.445,2.149 z"
           style="fill:#000000;fill-rule:evenodd"
           sodipodi:nodetypes="cscccccccccccccsc"
           id="path3716"
           inkscape:connector-curvature="0" />
        <path
           d="m 48.066,32.87 c -1.71,0.86 -5.172,2.587 -9.173,6.284 -4.378,0.431 -15.765,6.1 -16.112,9.943 -0.139,0.193 8.329,-5.998 13.135,-4.435 -2.341,3.401 -5.825,10.442 -4.263,10.522 1.666,0.085 2.914,-1.455 4.975,-3.875 11.464,-22.472 3.2,16.922 14.647,-9.867 4.182,1.582 2.19,12.34 6.928,4.502 1.207,-2.393 2.279,-5.88 2.916,-5.904 2.872,11.181 10.536,16.164 5.666,-0.163 11.857,8.528 13.65,17.09 11.448,1.438 19.256,16.941 26.097,11.758 7.337,-1.695 3.67,-0.512 9.394,2.606 20.85,4.654 C 96.66,39.155 95.7,35.491 82.771,36.068 79.474,34.508 76.39,32.68 72.983,31.652 69.577,30.625 66.151,36.259 61.48,36.117"
           style="fill:#ffffff;fill-rule:evenodd"
           sodipodi:nodetypes="cccccccccccccccc"
           id="path3718"
           inkscape:connector-curvature="0" />
      </g>
    </g>
    <g
       inkscape:label="Layer 1"
       id="g3720"
       transform="matrix(0.46134315,0,0,0.46134315,2.979925,923.95629)">
      <path
         d="m 27.996,63.576 -9.427,2.362 -6.284,7.088 -3.3384,9.879 -0.1963,10.524 2.1597,11.811 7.267,6.23 13.909,8.13 18.135,-2.9 c 0,0 8.018,-9.74 8.411,-11.24 0.393,-1.51 3.535,-14.823 3.535,-16.327 0,-1.503 -0.393,-9.664 -2.161,-11.382 -1.767,-1.718 -8.444,-7.302 -8.444,-7.302 L 40.957,68.73 35.262,67.442 27.996,63.576 z"
         style="fill:#ffffff;fill-rule:evenodd"
         sodipodi:nodetypes="cccccccccssscccc"
         id="path3722"
         inkscape:connector-curvature="0" />
      <path
         d="m 70.837,73.005 -5.698,8.545 -0.491,9.858 3.406,9.852 6.165,8.08 8.716,7.37 9.22,-0.51 16.235,-2.68 11.44,-16.652 c 0,0 1.37,-12.817 0.77,-14.234 -0.61,-1.416 -7.74,-13.72 -8.64,-14.855 -0.9,-1.134 -6.1,-7.012 -8.46,-7.041 -2.36,-0.029 -10.754,0.547 -10.754,0.547 l -9.035,6.311 -5.071,3.113 -7.803,2.296 z"
         style="fill:#ffffff;fill-rule:evenodd"
         sodipodi:nodetypes="cccccccccssscccc"
         id="path3724"
         inkscape:connector-curvature="0" />
      <path
         d="m 55.562,11.969 c -5.004,0.246 -11.59,9.05 -12.937,10.562 -0.717,0.806 -5.955,19.242 -6.344,20.813 -0.249,1.007 6.696,19.209 0.094,17.312 0,0 -7.684,-3.791 -11.094,-3.187 -10.413,3.242 -16.549,12.784 -19.968,22.562 -2.1627,8.342 -3.2151,17.855 -5e-4,26.059 6.9105,10.51 17.408,17.38 29.322,16.82 12.852,1.1 18.156,-0.54 24.804,-11.88 1.567,-2.52 1.434,-8.79 4.406,-8.87 7.518,12.18 8.852,18.43 28.156,19.18 8.02,-0.58 15.85,-2.72 21.09,-8.17 24.94,-25.215 5.61,-67.162 -31.465,-51.076 -0.058,0.074 -0.105,0.253 -0.031,0.312 0.023,0.019 0.072,-0.051 0.094,-0.031 0.028,0.026 0.006,0.118 -0.032,0.125 -0.033,0.006 -0.043,-0.066 -0.062,-0.094 -1.533,-2.269 -3.843,-5.128 -5.156,-7.531 -2.886,-5.279 -7.228,-12.481 -7.813,-18.469 -0.241,-2.468 0.623,-5.853 1.687,-8.094 1.737,-3.653 6.434,-6.99 8.5,-10.468 0.554,-0.933 1.905,-2.398 1.376,-3.344 -1.643,-2.933 -7.702,-1.821 -11.063,-1.781 -2.574,0.03 -6.61,-0.251 -8.437,1.562 -0.211,0.209 -0.095,1.031 -0.188,0.969 0,0 -3.161,-3.368 -4.938,-3.281 z M 57.75,29 c -0.138,0.677 -0.55,2.217 -0.5,2.5 0.191,1.081 7.066,18.808 7.719,20.281 0.411,0.93 16.246,9.857 10.437,13 -3.902,2.976 -6.319,5.091 -11.625,10.875 -2.967,0.979 -5.411,-4.94 -8.062,-6.594 -3.649,-2.275 -8.799,-6.729 -13.031,-5.968 -0.092,0.016 -0.241,0.128 -0.219,0.218 0.007,0.029 0.087,0.003 0.093,0.032 0.01,0.038 -0.057,0.109 -0.093,0.094 -0.035,-0.015 -10e-4,-0.088 0,-0.126 0.094,-2.826 0.166,-6.615 0.625,-9.406 0.984,-5.991 1.866,-14.48 5.187,-19.562 1.285,-1.966 3.967,-3.948 6.125,-4.875 C 55.337,29.069 57.75,29 57.75,29 z m 40.188,35.344 c 9.862,-1.492 16.812,6.336 18.992,14.915 4.16,10.799 0.87,19.014 -6.49,27.041 -6.1,7.11 -18.758,10.33 -28.58,8.9 -5.715,-3.75 -11.297,-11.57 -14.334,-17.772 -2.286,-6.454 -0.465,-14.593 4.005,-20.116 1.975,-1.786 2.901,-2.639 4.655,-4.642 1.187,-1.358 3.308,-2.348 4.658,-3.545 0.007,-0.006 0.025,-0.007 0.031,0 1.292,1.438 -0.456,4.487 -0.687,6.406 -0.449,3.719 -3.079,8.91 -1.657,12.375 1.454,3.543 6.29,8.254 10.094,7.813 2.278,-0.264 5.206,-3.679 4.813,-5.938 -0.416,-2.387 -5.786,-2.039 -6.907,-4.187 -4.087,-10.543 0.811,-19.1 11.407,-21.25 z M 26.544,64.92 c 2.704,0.017 4.521,7.252 7.206,6.924 1.718,-0.211 2.944,-5.236 4.156,-4 1.291,1.315 -3.02,3.061 -4.344,4.344 -2.567,2.487 -7.631,4.74 -8.687,8.156 -1.194,3.862 -0.417,10.855 2.906,13.156 1.799,1.246 6.07,0.83 7.219,-1.031 1.35,-2.187 -3.252,-5.611 -2.719,-8.125 0.96,-4.525 6.542,-12.917 11.013,-14.103 8.119,-0.612 15.173,8.649 17.675,16.071 -0.474,7.667 -3.713,21.148 -9.3,26.538 -7.777,3.47 -14.759,5.31 -23.073,3.33 -3.98,-1.31 -15.806,-9.02 -17.989,-12.6 C 8.6422,96.712 8.7826,88.096 10.285,81.022 12.327,74.746 19.701,66.015 26.544,64.92 z"
         style="fill:#000000;fill-rule:evenodd"
         sodipodi:nodetypes="cssscccccccccssssssssssssscssccssssssssssccccccssssssscccsssssssccccccc"
         id="path3726"
         inkscape:connector-curvature="0" />
    </g>
  </g>
</svg>
